<svg width="1080" height="1080" viewBox="0 0 1080 1080" fill="none" xmlns="http://www.w3.org/2000/svg">
<rect width="1080" height="1080" fill="#F5F5F5"/>
<g id="App Icon Template">
<g id="Syamsa 1">
<g id="Layer_x0020_1">
<path id="Vector" fill-rule="evenodd" clip-rule="evenodd" d="M243.78 368.493C249.792 353.019 267.364 345.284 282.835 351.295L455.019 418.203C470.49 424.214 478.227 441.785 472.216 457.258C466.203 472.73 448.632 480.469 433.16 474.456L260.977 407.549C245.505 401.535 237.768 383.966 243.78 368.493Z" fill="#0B3F71"/>
<path id="Vector_2" d="M367.494 165.398C361.202 149.204 343.508 140.969 327.974 147.005C312.441 153.041 304.949 171.062 311.242 187.256L415.745 456.194C422.038 472.388 439.732 480.623 455.265 474.587C470.799 468.551 478.29 450.53 471.997 434.336L367.494 165.398Z" fill="#0D4F8C"/>
<path id="Vector_3" fill-rule="evenodd" clip-rule="evenodd" d="M209.267 628.186C202.577 612.993 209.533 595.098 224.723 588.41L393.787 513.969C408.977 507.279 426.873 514.233 433.563 529.424C440.252 544.617 433.299 562.513 418.107 569.2L249.044 643.642C233.851 650.33 215.956 643.377 209.268 628.185L209.267 628.186Z" fill="#0C6DC2"/>
<path id="Vector_4" d="M153.136 397.096C137.235 390.094 118.901 396.783 112.185 412.035C105.469 427.287 112.915 445.327 128.816 452.328L392.878 568.601C408.779 575.603 427.113 568.914 433.829 553.662C440.545 538.41 433.099 520.37 417.199 513.369L153.136 397.096Z" fill="#0D81E4"/>
<path id="Vector_5" fill-rule="evenodd" clip-rule="evenodd" d="M368.494 836.22C353.02 830.208 345.285 812.636 351.296 797.165L418.203 624.982C424.214 609.511 441.785 601.773 457.258 607.785C472.731 613.798 480.469 631.369 474.456 646.841L407.548 819.024C401.534 834.496 383.965 842.234 368.493 836.221L368.494 836.22Z" fill="#0FA7B5"/>
<path id="Vector_6" d="M165.398 712.506C149.204 718.798 140.969 736.492 147.005 752.026C153.041 767.559 171.062 775.051 187.256 768.758L456.194 664.255C472.388 657.962 480.623 640.268 474.587 624.735C468.551 609.201 450.53 601.71 434.336 608.003L165.398 712.506Z" fill="#11C5D4"/>
<path id="Vector_7" fill-rule="evenodd" clip-rule="evenodd" d="M628.186 870.733C612.993 877.423 595.098 870.468 588.409 855.277L513.968 686.214C507.279 671.024 514.232 653.128 529.424 646.438C544.617 639.75 562.513 646.702 569.201 661.895L643.642 830.958C650.33 846.151 643.377 864.046 628.186 870.734V870.733Z" fill="#32E2A1"/>
<path id="Vector_8" d="M397.097 926.864C390.095 942.765 396.784 961.099 412.036 967.815C427.288 974.531 445.328 967.085 452.329 951.184L568.602 687.122C575.604 671.221 568.915 652.887 553.663 646.171C538.411 639.455 520.371 646.901 513.37 662.802L397.097 926.864Z" fill="#4FE6AF"/>
<path id="Vector_9" fill-rule="evenodd" clip-rule="evenodd" d="M836.22 711.508C830.208 726.981 812.636 734.716 797.164 728.705L624.981 661.797C609.51 655.786 601.772 638.215 607.784 622.742C613.797 607.27 631.368 599.531 646.839 605.544L819.023 672.451C834.495 678.465 842.232 696.035 836.22 711.508Z" fill="#32E26F"/>
<path id="Vector_10" d="M712.506 914.602C718.798 930.796 736.492 939.031 752.026 932.995C767.559 926.959 775.051 908.938 768.758 892.744L664.255 623.806C657.962 607.612 640.268 599.377 624.735 605.413C609.201 611.449 601.71 629.47 608.003 645.664L712.506 914.602Z" fill="#4EE685"/>
<path id="Vector_11" fill-rule="evenodd" clip-rule="evenodd" d="M870.733 451.815C877.423 467.008 870.467 484.903 855.277 491.591L686.213 566.032C671.023 572.721 653.127 565.768 646.437 550.577C639.748 535.384 646.7 517.488 661.893 510.799L830.956 436.358C846.149 429.67 864.044 436.623 870.733 451.815Z" fill="#32E2A1"/>
<path id="Vector_12" d="M926.864 682.904C942.765 689.906 961.099 683.217 967.815 667.965C974.531 652.713 967.085 634.673 951.184 627.672L687.122 511.399C671.221 504.397 652.887 511.086 646.171 526.338C639.455 541.59 646.901 559.63 662.802 566.632L926.864 682.904Z" fill="#4FE6AF"/>
<path id="Vector_13" fill-rule="evenodd" clip-rule="evenodd" d="M711.508 243.78C726.981 249.792 734.716 267.364 728.705 282.836L661.798 455.019C655.787 470.49 638.216 478.228 622.742 472.216C607.27 466.203 599.531 448.633 605.544 433.161L672.452 260.978C678.466 245.506 696.036 237.768 711.508 243.781V243.78Z" fill="#0FA7B5"/>
<path id="Vector_14" d="M914.603 367.494C930.798 361.202 939.032 343.508 932.996 327.974C926.96 312.441 908.939 304.949 892.745 311.242L623.807 415.745C607.613 422.038 599.378 439.732 605.414 455.265C611.45 470.799 629.471 478.29 645.665 471.997L914.603 367.494Z" fill="#11C5D4"/>
<path id="Vector_15" fill-rule="evenodd" clip-rule="evenodd" d="M451.815 209.267C467.008 202.577 484.903 209.532 491.591 224.722L566.032 393.786C572.722 408.976 565.769 426.872 550.577 433.563C535.384 440.252 517.488 433.299 510.8 418.106L436.359 249.043C429.671 233.85 436.623 215.955 451.815 209.267Z" fill="#0C6DC2"/>
<path id="Vector_16" d="M682.904 153.136C689.906 137.235 683.217 118.901 667.965 112.185C652.713 105.469 634.673 112.915 627.672 128.816L511.399 392.878C504.398 408.779 511.086 427.113 526.338 433.829C541.59 440.545 559.63 433.099 566.632 417.198L682.904 153.136Z" fill="#0D81E4"/>
</g>
</g>
</g>
</svg>
