<?xml version="1.0" encoding="UTF-8"?>
<!DOCTYPE svg PUBLIC "-//W3C//DTD SVG 1.1//EN" "http://www.w3.org/Graphics/SVG/1.1/DTD/svg11.dtd">
<!-- Creator: CorelDRAW -->
<svg xmlns="http://www.w3.org/2000/svg" xml:space="preserve" width="32in" height="15in" version="1.1" style="shape-rendering:geometricPrecision; text-rendering:geometricPrecision; image-rendering:optimizeQuality; fill-rule:evenodd; clip-rule:evenodd"
viewBox="0 0 32000 15000"
 xmlns:xlink="http://www.w3.org/1999/xlink"
 xmlns:xodm="http://www.corel.com/coreldraw/odm/2003">
 <defs>
  <style type="text/css">
   <![CDATA[
    .fil0 {fill:#0B3F71}
    .fil2 {fill:#0C6DC2}
    .fil1 {fill:#0D4F8C}
    .fil3 {fill:#0D81E4}
    .fil4 {fill:#0FA7B5}
    .fil5 {fill:#11C5D4}
    .fil8 {fill:#32E26F}
    .fil6 {fill:#32E2A1}
    .fil9 {fill:#4EE685}
    .fil7 {fill:#4FE6AF}
   ]]>
  </style>
 </defs>
 <g id="Layer_x0020_1">
  <metadata id="CorelCorpID_0Corel-Layer"/>
  <g id="_1809662306016">
   <path class="fil0" d="M14146.19 6426.67l0 0c37.63,-96.83 147.59,-145.24 244.42,-107.62l1077.56 418.72c96.82,37.62 145.25,147.58 107.63,244.42l0 0c-37.63,96.83 -147.59,145.26 -244.42,107.62l-1077.56 -418.72c-96.83,-37.63 -145.25,-147.59 -107.62,-244.42z"/>
   <rect class="fil1" transform="matrix(9.85002 -3.8275 3.8275 9.85002 14497.1 5108.94)" width="35.74" height="208.13" rx="18.63" ry="18.63"/>
   <path class="fil2" d="M13930.2 8051.88l0 0c-41.87,-95.08 1.67,-207.07 96.73,-248.93l1058.03 -465.87c95.07,-41.86 207.07,1.65 248.93,96.73l0 0c41.86,95.08 -1.65,207.07 -96.73,248.93l-1058.04 465.87c-95.08,41.85 -207.07,-1.65 -248.93,-96.73z"/>
   <rect class="fil3" transform="matrix(4.25857 -9.67146 9.67146 4.25857 13246.5 6872)" width="35.74" height="208.13" rx="18.63" ry="18.63"/>
   <path class="fil4" d="M14926.67 9353.81l0 0c-96.83,-37.63 -145.24,-147.59 -107.62,-244.42l418.72 -1077.56c37.62,-96.82 147.58,-145.25 244.42,-107.62l0 0c96.83,37.63 145.26,147.59 107.62,244.42l-418.72 1077.56c-37.63,96.83 -147.59,145.25 -244.42,107.62z"/>
   <rect class="fil5" transform="matrix(-3.8275 -9.85002 9.85002 -3.8275 13608.9 9002.93)" width="35.74" height="208.13" rx="18.63" ry="18.63"/>
   <path class="fil6" d="M16551.89 9569.8l0 0c-95.08,41.87 -207.07,-1.67 -248.93,-96.73l-465.87 -1058.03c-41.86,-95.07 1.65,-207.07 96.73,-248.93l0 0c95.08,-41.86 207.08,1.65 248.93,96.73l465.87 1058.04c41.85,95.08 -1.65,207.07 -96.73,248.93z"/>
   <rect class="fil7" transform="matrix(-9.67146 -4.25857 4.25857 -9.67146 15372 10253.5)" width="35.74" height="208.13" rx="18.63" ry="18.63"/>
   <path class="fil8" d="M17853.81 8573.33l0 0c-37.63,96.83 -147.59,145.24 -244.42,107.62l-1077.56 -418.72c-96.82,-37.62 -145.25,-147.58 -107.62,-244.42l0 0c37.63,-96.83 147.59,-145.26 244.42,-107.62l1077.56 418.72c96.83,37.64 145.25,147.59 107.62,244.42z"/>
   <rect class="fil9" transform="matrix(-9.85002 3.8275 -3.8275 -9.85002 17502.9 9891.06)" width="35.74" height="208.13" rx="18.63" ry="18.63"/>
   <path class="fil6" d="M18069.8 6948.11l0 0c41.87,95.08 -1.66,207.07 -96.73,248.93l-1058.04 465.87c-95.07,41.86 -207.06,-1.65 -248.93,-96.73l0 0c-41.86,-95.08 1.65,-207.07 96.73,-248.93l1058.03 -465.87c95.08,-41.85 207.07,1.65 248.93,96.73z"/>
   <rect class="fil7" transform="matrix(-4.25857 9.67146 -9.67146 -4.25857 18753.5 8128)" width="35.74" height="208.13" rx="18.63" ry="18.63"/>
   <path class="fil4" d="M17073.33 5646.19l0 0c96.83,37.63 145.24,147.59 107.62,244.42l-418.72 1077.56c-37.62,96.82 -147.58,145.25 -244.42,107.62l0 0c-96.83,-37.63 -145.26,-147.59 -107.62,-244.42l418.72 -1077.56c37.63,-96.83 147.59,-145.25 244.42,-107.62z"/>
   <rect class="fil5" transform="matrix(3.8275 9.85002 -9.85002 3.8275 18391.1 5997.07)" width="35.74" height="208.13" rx="18.63" ry="18.63"/>
   <path class="fil2" d="M15448.12 5430.2l0 0c95.08,-41.87 207.07,1.67 248.93,96.73l465.87 1058.03c41.86,95.07 -1.65,207.06 -96.73,248.93l0 0c-95.08,41.86 -207.07,-1.65 -248.93,-96.73l-465.87 -1058.04c-41.85,-95.08 1.65,-207.07 96.73,-248.93z"/>
   <rect class="fil3" transform="matrix(9.67146 4.25857 -4.25857 9.67146 16628 4746.54)" width="35.74" height="208.13" rx="18.63" ry="18.63"/>
  </g>
 </g>
</svg>
