<?xml version="1.0" encoding="UTF-8"?>
<!DOCTYPE svg PUBLIC "-//W3C//DTD SVG 1.1//EN" "http://www.w3.org/Graphics/SVG/1.1/DTD/svg11.dtd">
<!-- Creator: CorelDRAW -->
<svg xmlns="http://www.w3.org/2000/svg" xml:space="preserve" width="32in" height="15in" version="1.1" style="shape-rendering:geometricPrecision; text-rendering:geometricPrecision; image-rendering:optimizeQuality; fill-rule:evenodd; clip-rule:evenodd"
viewBox="0 0 32000 15000"
 xmlns:xlink="http://www.w3.org/1999/xlink"
 xmlns:xodm="http://www.corel.com/coreldraw/odm/2003">
 <defs>
  <style type="text/css">
   <![CDATA[
    .fil0 {fill:#0D4F8C;fill-rule:nonzero}
    .fil1 {fill:#4EE685;fill-rule:nonzero}
   ]]>
  </style>
 </defs>
 <g id="Layer_x0020_1">
  <metadata id="CorelCorpID_0Corel-Layer"/>
  <path class="fil0" d="M9687.89 8539.27c-183.02,0 -347.73,-22.87 -494.15,-68.63 -146.41,-45.76 -286.29,-126.15 -419.63,-241.19 -33.99,-28.76 -60.13,-61.44 -78.44,-98.05 -18.3,-36.6 -27.45,-73.2 -27.45,-109.81 0,-60.13 21.57,-113.08 64.71,-158.83 43.14,-45.75 97.39,-68.63 162.75,-68.63 49.68,0 94.12,15.69 133.34,47.06 99.35,81.05 198.05,142.49 296.09,184.32 98.04,41.83 218.96,62.75 362.76,62.75 96.74,0 185.63,-15.03 266.68,-45.1 81.05,-30.07 146.41,-70.59 196.09,-121.58 49.67,-50.98 74.51,-109.15 74.51,-174.52 0,-78.43 -23.53,-145.1 -70.59,-200.01 -47.06,-54.91 -118.96,-101.31 -215.7,-139.22 -96.74,-37.91 -219.62,-67.32 -368.65,-88.24 -141.19,-20.92 -265.37,-52.94 -372.57,-96.08 -107.19,-43.14 -196.74,-98.05 -268.64,-164.72 -71.9,-66.67 -126.15,-145.11 -162.75,-235.31 -36.61,-90.2 -54.91,-191.51 -54.91,-303.94 0,-169.94 43.79,-315.05 131.38,-435.32 87.59,-120.27 205.89,-211.78 354.92,-274.52 149.03,-62.75 313.74,-94.12 494.15,-94.12 169.94,0 327.47,25.49 472.57,76.47 145.11,50.98 263.41,115.69 354.92,194.13 75.82,60.13 113.73,129.42 113.73,207.85 0,57.52 -22.22,109.81 -66.67,156.87 -44.45,47.06 -96.74,70.59 -156.87,70.59 -39.22,0 -74.51,-11.77 -105.89,-35.3 -41.83,-36.6 -98.05,-71.24 -168.64,-103.93 -70.59,-32.68 -145.11,-60.13 -223.54,-82.36 -78.43,-22.22 -151.64,-33.33 -219.62,-33.33 -112.43,0 -207.2,14.38 -284.33,43.14 -77.13,28.76 -135.3,67.98 -174.52,117.65 -39.22,49.68 -58.83,107.2 -58.83,172.56 0,78.44 22.88,143.15 68.63,194.13 45.75,50.98 111.77,91.51 198.05,121.57 86.28,30.07 189.55,56.87 309.82,80.4 156.87,28.76 294.79,62.75 413.75,101.96 118.96,39.22 217.66,89.55 296.09,150.99 78.44,61.44 137.26,138.57 176.48,231.39 39.22,92.81 58.83,205.89 58.83,339.24 0,169.94 -47.06,316.35 -141.19,439.24 -94.12,122.89 -217.66,217.01 -370.61,282.37 -152.95,65.36 -318.32,98.04 -496.11,98.04z"/>
  <path id="_1" class="fil0" d="M12664.52 6401.9c67.98,0 124.19,22.88 168.64,68.63 44.45,45.76 66.67,102.62 66.67,170.6l0 1666.76c0,240.54 -45.1,432.05 -135.3,574.54 -90.2,142.49 -211.12,245.11 -362.76,307.86 -151.65,62.75 -321.59,94.13 -509.83,94.13 -83.67,0 -172.56,-6.54 -266.68,-19.61 -94.12,-13.07 -171.25,-32.68 -231.39,-58.83 -78.43,-33.99 -132.69,-76.48 -162.75,-127.46 -30.07,-50.98 -35.95,-105.24 -17.65,-162.76 23.53,-75.82 61.44,-127.46 113.73,-154.91 52.29,-27.45 107.2,-30.72 164.72,-9.8 41.83,13.07 96.74,33.33 164.71,60.79 67.98,27.45 146.41,41.18 235.31,41.18 120.27,0 220.28,-16.34 300.02,-49.02 79.74,-32.68 139.88,-87.59 180.41,-164.71 40.52,-77.13 60.79,-182.36 60.79,-315.7l0 -262.76 82.35 94.12c-44.44,86.28 -100,157.53 -166.67,213.74 -66.67,56.21 -145.76,98.7 -237.27,127.46 -91.51,28.76 -196.09,43.14 -313.74,43.14 -138.57,0 -259.49,-32.03 -362.76,-96.08 -103.28,-64.06 -183.67,-152.95 -241.19,-266.68 -57.52,-113.73 -86.28,-243.8 -86.28,-390.22l0 -1145.16c0,-67.98 22.22,-124.84 66.67,-170.6 44.44,-45.75 100.66,-68.63 168.64,-68.63 67.98,0 124.19,22.88 168.63,68.63 44.45,45.76 66.67,102.62 66.67,170.6l0 1003.98c0,169.94 37.26,289.56 111.77,358.84 74.52,69.29 178.44,103.93 311.78,103.93 91.51,0 168.64,-17.65 231.39,-52.94 62.75,-35.3 111.12,-87.59 145.11,-156.87 33.99,-69.29 50.98,-153.61 50.98,-252.96l0 -1003.98c0,-67.98 22.22,-124.84 66.67,-170.6 44.44,-45.75 100.66,-68.63 168.63,-68.63z"/>
  <path id="_2" class="fil0" d="M15127.4 6362.69c67.98,0 124.19,22.22 168.64,66.67 44.44,44.44 66.67,101.96 66.67,172.56l0 1658.91c0,67.98 -22.22,124.84 -66.67,170.6 -44.45,45.75 -100.66,68.63 -168.64,68.63 -67.98,0 -124.19,-22.88 -168.64,-68.63 -44.44,-45.76 -66.67,-102.62 -66.67,-170.6l0 -192.17 86.28 35.3c0,33.99 -18.3,75.17 -54.91,123.54 -36.6,48.37 -86.28,96.08 -149.03,143.15 -62.75,47.06 -136.61,86.93 -221.58,119.61 -84.97,32.68 -177.13,49.02 -276.48,49.02 -180.4,0 -343.81,-46.41 -490.22,-139.22 -146.41,-92.82 -262.1,-220.93 -347.07,-384.33 -84.97,-163.41 -127.46,-351 -127.46,-562.78 0,-214.39 42.49,-403.29 127.46,-566.7 84.97,-163.41 199.35,-291.52 343.15,-384.33 143.8,-92.81 303.29,-139.22 478.46,-139.22 112.42,0 215.7,16.99 309.82,50.98 94.12,33.99 175.83,77.13 245.11,129.42 69.29,52.29 122.89,105.23 160.8,158.83 37.91,53.6 56.87,98.7 56.87,135.3l-141.19 50.98 0 -286.29c0,-67.98 22.22,-124.85 66.67,-170.6 44.45,-45.76 100.66,-68.63 168.64,-68.63zm-792.2 1745.19c115.04,0 215.7,-28.76 301.98,-86.28 86.28,-57.52 153.6,-135.96 201.97,-235.31 48.37,-99.35 72.56,-210.47 72.56,-333.35 0,-125.5 -24.19,-237.92 -72.56,-337.27 -48.37,-99.35 -115.69,-177.79 -201.97,-235.31 -86.28,-57.52 -186.94,-86.28 -301.98,-86.28 -112.43,0 -211.78,28.76 -298.06,86.28 -86.28,57.52 -153.6,135.96 -201.97,235.31 -48.37,99.35 -72.55,211.78 -72.55,337.27 0,122.89 24.18,234 72.55,333.35 48.37,99.35 115.69,177.79 201.97,235.31 86.28,57.52 185.63,86.28 298.06,86.28z"/>
  <path id="_3" class="fil0" d="M16974.56 6362.69c209.16,0 363.42,50.33 462.77,150.99 99.35,100.66 164.71,230.73 196.09,390.22l-66.67 -35.3 31.37 -62.75c31.37,-60.14 79.74,-124.85 145.11,-194.13 65.36,-69.28 144.45,-128.11 237.27,-176.48 92.81,-48.37 196.74,-72.55 311.78,-72.55 188.24,0 331.39,40.52 429.43,121.57 98.05,81.05 165.37,188.9 201.97,323.55 36.6,134.65 54.91,284.33 54.91,449.04l0 1003.98c0,67.98 -22.22,124.84 -66.67,170.6 -44.45,45.75 -100.66,68.63 -168.64,68.63 -67.98,0 -124.19,-22.88 -168.64,-68.63 -44.44,-45.76 -66.67,-102.62 -66.67,-170.6l0 -1003.98c0,-86.28 -10.46,-164.06 -31.37,-233.35 -20.92,-69.28 -58.83,-124.84 -113.73,-166.68 -54.91,-41.83 -133.34,-62.75 -235.31,-62.75 -99.35,0 -184.32,20.92 -254.92,62.75 -70.59,41.83 -123.54,97.39 -158.83,166.68 -35.3,69.28 -52.94,147.07 -52.94,233.35l0 1003.98c0,67.98 -22.22,124.84 -66.67,170.6 -44.44,45.75 -100.66,68.63 -168.64,68.63 -67.98,0 -124.19,-22.88 -168.63,-68.63 -44.45,-45.76 -66.67,-102.62 -66.67,-170.6l0 -1003.98c0,-86.28 -10.46,-164.06 -31.37,-233.35 -20.91,-69.28 -58.83,-124.84 -113.73,-166.68 -54.9,-41.83 -133.34,-62.75 -235.31,-62.75 -99.35,0 -184.32,20.92 -254.91,62.75 -70.59,41.83 -123.54,97.39 -158.83,166.68 -35.3,69.28 -52.94,147.07 -52.94,233.35l0 1003.98c0,67.98 -22.22,124.84 -66.67,170.6 -44.44,45.75 -100.66,68.63 -168.63,68.63 -67.98,0 -124.19,-22.88 -168.64,-68.63 -44.45,-45.76 -66.67,-102.62 -66.67,-170.6l0 -1619.7c0,-67.98 22.22,-124.84 66.67,-170.6 44.44,-45.75 100.66,-68.63 168.64,-68.63 67.98,0 124.19,22.88 168.63,68.63 44.45,45.76 66.67,102.62 66.67,170.6l0 168.64 -58.83 -11.77c23.53,-44.44 56.21,-92.16 98.04,-143.15 41.83,-50.98 92.81,-98.7 152.95,-143.14 60.13,-44.45 126.8,-80.4 200.01,-107.85 73.2,-27.45 152.95,-41.18 239.23,-41.18z"/>
  <path id="_4" class="fil0" d="M19366.85 8174.55c-26.15,-36.6 -37.91,-83.67 -35.3,-141.19 2.61,-57.52 36.61,-107.19 101.97,-149.03 41.83,-26.15 86.28,-37.26 133.34,-33.33 47.06,3.92 92.81,28.11 137.26,72.55 75.82,75.82 155.56,134.65 239.23,176.48 83.67,41.83 188.24,62.75 313.74,62.75 39.22,-2.62 82.36,-8.5 129.42,-17.65 47.06,-9.15 88.24,-30.07 123.54,-62.75 35.3,-32.68 52.94,-83.01 52.94,-150.99 0,-57.52 -19.61,-103.28 -58.83,-137.26 -39.22,-33.99 -90.85,-62.75 -154.91,-86.28 -64.06,-23.53 -135.3,-45.75 -213.74,-66.67 -81.05,-23.53 -164.06,-49.68 -249.04,-78.44 -84.97,-28.76 -162.75,-66.02 -233.35,-111.77 -70.59,-45.75 -128.11,-106.54 -172.56,-182.36 -44.44,-75.82 -66.67,-171.25 -66.67,-286.29 0,-130.73 36.6,-241.85 109.81,-333.35 73.2,-91.51 167.98,-162.1 284.33,-211.78 116.35,-49.68 238.58,-74.51 366.69,-74.51 81.05,0 166.02,9.8 254.92,29.41 88.89,19.61 173.86,50.98 254.91,94.12 81.05,43.14 149.03,100 203.93,170.59 28.76,39.22 45.76,86.28 50.98,141.19 5.23,54.91 -19.61,104.58 -74.52,149.03 -39.22,31.37 -84.97,45.1 -137.26,41.18 -52.29,-3.92 -95.43,-21.57 -129.42,-52.94 -44.44,-57.52 -103.93,-103.28 -178.44,-137.26 -74.51,-33.99 -160.14,-50.98 -256.87,-50.98 -39.22,0 -81.7,4.57 -127.46,13.72 -45.75,9.15 -85.63,28.76 -119.61,58.83 -33.99,30.07 -50.98,77.78 -50.98,143.15 0,60.13 19.61,107.85 58.83,143.15 39.22,35.3 92.17,64.06 158.83,86.28 66.67,22.22 137.91,43.79 213.74,64.71 78.44,20.92 158.18,45.75 239.23,74.51 81.05,28.76 155.56,66.67 223.54,113.73 67.98,47.06 122.88,107.85 164.71,182.36 41.83,74.52 62.75,169.29 62.75,284.33 0,133.34 -39.22,247.07 -117.65,341.2 -78.43,94.12 -176.48,165.37 -294.13,213.74 -117.65,48.37 -237.92,72.55 -360.8,72.55 -154.26,0 -308.51,-26.8 -462.77,-80.39 -154.26,-53.6 -282.37,-148.37 -384.33,-284.33z"/>
  <path id="_5" class="fil1" d="M23096.47 6362.69c67.98,0 124.19,22.22 168.64,66.67 44.44,44.44 66.67,101.96 66.67,172.56l0 1658.91c0,67.98 -22.22,124.84 -66.67,170.6 -44.45,45.75 -100.66,68.63 -168.64,68.63 -67.98,0 -124.19,-22.88 -168.64,-68.63 -44.44,-45.76 -66.67,-102.62 -66.67,-170.6l0 -192.17 86.28 35.3c0,33.99 -18.3,75.17 -54.91,123.54 -36.6,48.37 -86.28,96.08 -149.03,143.15 -62.75,47.06 -136.61,86.93 -221.58,119.61 -84.97,32.68 -177.13,49.02 -276.48,49.02 -180.4,0 -343.81,-46.41 -490.22,-139.22 -146.41,-92.82 -262.1,-220.93 -347.07,-384.33 -84.97,-163.41 -127.46,-351 -127.46,-562.78 0,-214.39 42.49,-403.29 127.46,-566.7 84.97,-163.41 199.35,-291.52 343.15,-384.33 143.8,-92.81 303.29,-139.22 478.46,-139.22 112.42,0 215.7,16.99 309.82,50.98 94.12,33.99 175.83,77.13 245.11,129.42 69.29,52.29 122.89,105.23 160.8,158.83 37.91,53.6 56.87,98.7 56.87,135.3l-141.19 50.98 0 -286.29c0,-67.98 22.22,-124.85 66.67,-170.6 44.45,-45.76 100.66,-68.63 168.64,-68.63zm-792.2 1745.19c115.04,0 215.7,-28.76 301.98,-86.28 86.28,-57.52 153.6,-135.96 201.97,-235.31 48.37,-99.35 72.56,-210.47 72.56,-333.35 0,-125.5 -24.19,-237.92 -72.56,-337.27 -48.37,-99.35 -115.69,-177.79 -201.97,-235.31 -86.28,-57.52 -186.94,-86.28 -301.98,-86.28 -112.43,0 -211.78,28.76 -298.06,86.28 -86.28,57.52 -153.6,135.96 -201.97,235.31 -48.37,99.35 -72.55,211.78 -72.55,337.27 0,122.89 24.18,234 72.55,333.35 48.37,99.35 115.69,177.79 201.97,235.31 86.28,57.52 185.63,86.28 298.06,86.28z"/>
 </g>
</svg>
