<?xml version="1.0" encoding="UTF-8"?>
<!DOCTYPE svg PUBLIC "-//W3C//DTD SVG 1.1//EN" "http://www.w3.org/Graphics/SVG/1.1/DTD/svg11.dtd">
<!-- Creator: CorelDRAW -->
<svg xmlns="http://www.w3.org/2000/svg" xml:space="preserve" width="32in" height="15in" version="1.1" style="shape-rendering:geometricPrecision; text-rendering:geometricPrecision; image-rendering:optimizeQuality; fill-rule:evenodd; clip-rule:evenodd"
viewBox="0 0 32000 15000"
 xmlns:xlink="http://www.w3.org/1999/xlink"
 xmlns:xodm="http://www.corel.com/coreldraw/odm/2003">
 <defs>
  <style type="text/css">
   <![CDATA[
    .fil0 {fill:#0D4F8C}
    .fil1 {fill:#0D4F8C;fill-rule:nonzero}
   ]]>
  </style>
 </defs>
 <g id="Layer_x0020_1">
  <metadata id="CorelCorpID_0Corel-Layer"/>
  <g id="_1809662292720">
   <g>
    <path class="fil0" d="M19803.72 4132.98l561.55 2295.11c-58.03,14.14 -115.46,29.81 -172.06,47.25l-697.81 -2257.02 94.73 -257.57 213.59 172.23zm4856.13 5165.78l28.52 -35.75 41.34 -51.75 -0.09 0.03 -0.11 -0.02 0.15 -0.17 -0.17 -0.04 0.07 -0.05 -671.1 21.43c1.55,47.68 1.92,95.16 1.24,142.37l671.37 10.46 0.19 -0.01 -26.03 -31.43 -34.66 -42.09 -10.72 -13zm478.76 423.09l-113.42 -144.64 -52.65 -67.13 -915.57 -42.81c-2.27,49.89 -5.79,99.49 -10.49,148.78l1023.78 99.13 68.15 6.6 0.21 0.06zm-1129.24 157.34l1198.37 224.93 618.16 116.15 -0.03 -0.09 0.28 0.06 -215.02 -278.69 -364.23 -49.19 -1213.26 -164.25c-6.79,50.76 -14.93,101.11 -24.27,151.07zm808.89 1078.76l-495.94 -215.95 -509.93 -222.06c-19.9,45.61 -40.96,90.62 -63.01,135.08l821.01 407.35 247.87 -104.42zm313.39 -2089.96l-0.27 0.02 0.13 -0.19 -1090.47 123.69c5.53,49.22 9.79,98.81 12.99,148.75l915.02 -57.72 162.6 -214.55zm529.7 1988.28l-806.75 -268.81 -946.86 -315.55c-16.18,48.46 -33.46,96.47 -52.06,143.81l1079.43 422.1 402.6 157.52 0.11 -0.05 0.14 0.04 323.39 -139.06zm149.45 -2498.03l-665.91 136.41 -1145 234.36c10.13,49.78 19.06,100.03 26.64,150.74l1573.85 -239.22 210.35 -282.17 0.06 -0.12zm-941.81 2075.33l-927.43 -270.18c16.59,-57 31.6,-114.63 44.84,-172.89l1058.24 240.83 1245.13 283.19 175.78 210.78 -0.27 0.08 -255.75 98.72 -0.04 -0.02 -0.23 0.08 -1340.26 -390.6zm940.98 -2264.58l-1835.06 449.31c-14.17,-58.15 -29.86,-115.69 -47.33,-172.38l1751.48 -541.52 505.16 -156.16 0.16 0.02 0.07 -0.07 257.45 94.71 -172.27 213.6 -459.66 112.49zm-3008.81 -2064.54l0.02 0.07 0.1 -0.28 30.93 79.13 10.02 25.27 45.08 -7.58 65.37 -10.96 -0.04 0.09 -344.74 576.05c-40.6,-24.35 -81.8,-47.73 -123.59,-70.17l316.84 -591.61zm1400.61 1419.54l68.14 25.47 -0.04 0.11 -586.19 326.24c-23.12,-41.47 -47.2,-82.34 -72.22,-122.55l570 -353.8 0.2 -0.19 -14.14 93.98 -2.56 16.89 36.82 13.84zm-3243.44 -1851l60.42 48.21 27.13 21.78 13.04 -10.77 73.46 -60.63 -0.04 0.11 0.02 0 -10.5 671.63c-47.15,-0.7 -94.58,-0.24 -142.17,1.23l-21.43 -671.43 0.06 -0.14zm1746.63 -88.39l104.43 248.12 -407.39 820.9c-44.44,-22.1 -89.48,-43.13 -135.12,-63.03l438.07 -1005.99zm1653.13 1316.64l-33.59 266.92 -763.19 507.22c-27.57,-41.41 -56.12,-82.08 -85.67,-121.97l882.44 -652.17zm-2339.16 -405.96l584.5 -1753.69 138.92 323.4 -579.81 1482.26c-47.29,-18.56 -95.19,-35.84 -143.6,-51.98zm1289.28 851.92l1383.44 -1226.86 -41.14 349.6 -1243.76 994.07c-31.85,-39.78 -64.73,-78.74 -98.54,-116.81zm-1839.19 -2082.93l-105.96 1092.28c-49.27,-4.71 -98.83,-8.23 -148.69,-10.5l42.75 -915.85 211.91 -165.94zm1978.95 741.43l-638 893.06c-40.39,-28.88 -81.51,-56.84 -123.36,-83.72l494.89 -771.49 266.48 -37.84zm1343.07 1631.58l-998.25 454.08c-20.65,-45.33 -42.4,-90.06 -65.21,-134.07l813.85 -420.57 249.61 100.56zm-2823.68 -3060.54l-341.23 1816.88c-49.91,-9.31 -100.23,-17.43 -150.93,-24.23l213.53 -1577.61 278.64 -215.04zm2255.95 1082.79l-1204.3 1403.15c-38.63,-33.17 -78.14,-65.31 -118.43,-96.45l973.94 -1259.74 348.79 -46.96zm1412.37 2065.78l-1743.83 612.75c-16.94,-48.28 -35.11,-95.91 -54.35,-142.97l1472.67 -603.69 325.51 133.91zm-3373.9 -3612.24l-524.24 2303.56c58.23,13.22 115.84,28.19 172.77,44.78l661.01 -2268.04 -98.67 -255.98 -210.88 175.69zm2448.23 1292.04l-1606.23 1733.33c43.65,40.46 86.24,82.09 127.44,125.06l1706.82 -1634 42.44 -271.15 -270.48 46.76zm-5413.39 727.57l-37.69 100.97 -1.57 4 -48.28 -7.28 -62.65 -9.32 0.14 0.04 353.97 570.31c40.2,-25.02 81.1,-49.07 122.57,-72.22l-326.3 -586.41 -0.09 0.14 -0.1 -0.22zm-1543.72 821.89l37.79 266.43 771.62 495.02c26.89,-41.83 54.84,-82.95 83.72,-123.33l-893.13 -638.11zm1057.04 429.13l-1403.19 -1204.48 46.82 348.87 1259.89 974.02c31.16,-40.29 63.3,-79.81 96.48,-118.41zm-161.6 -1339.21l652.41 882.64c39.87,-29.52 80.54,-58.07 121.93,-85.62l-507.26 -763.54 -267.08 -33.48zm-780.95 -333.5l1227.01 1383.65c38.09,-33.82 77.04,-66.67 116.84,-98.55l-994.22 -1243.77 -349.63 -41.33zm-490.77 -246.49l1634.13 1707.05c-43.01,41.18 -84.63,83.76 -125.06,127.42l-1733.26 -1606.35 -46.95 -270.54 271.13 42.42zm2007.73 147.08l-100.4 249.58 420.65 814.12c44.04,-22.79 88.69,-44.54 134,-65.16l-454.26 -998.54zm700.83 899.53l-612.88 -1744.14 -133.74 325.69 603.77 1472.76c47.01,-19.24 94.65,-37.39 142.85,-54.3zm529.81 -1239.99l123.71 1090.86c49.11,-5.55 98.63,-9.81 148.5,-12.98l-57.63 -915.34 -214.59 -162.54zm-509.48 -679.28l370.72 1811.25c49.69,-10.1 99.85,-19.05 150.49,-26.6l-239.12 -1574.16 -282.09 -210.49z"/>
    <path class="fil0" d="M20934.2 6476.14c1575.02,-77.78 2914.89,1135.97 2992.67,2711.01 25.98,526.17 -92.32,1025.97 -319.93,1461.35 169.3,-390.99 253.94,-825.76 231.49,-1280.06 -78.17,-1583.16 -1424.97,-2803.19 -3008.13,-2725 -909.44,44.9 -1698.92,508.51 -2191.45,1194.99 476.34,-777.47 1315.93,-1313.93 2295.35,-1362.3z"/>
   </g>
   <path class="fil1" d="M21312.53 8318.11l552.28 0 0 158.34c275.33,-119.13 637.29,-42.23 838.15,199.62 184.81,213.15 193.91,481.63 194.55,749.35l0 1260.04 -563 0 0.9 -1426.27c0.23,-407.13 -470.57,-381.24 -470.59,-0.52l0 710.85 -2130.61 0 0 715.93 -563 0 0.9 -1426.27c0.23,-407.16 -470.6,-381.24 -470.6,-0.52l-0.02 882.67 -562.2 0 -0.03 -882.67c0,-380.69 -471.11,-406.64 -470.6,0.52l0.91 710.34 -6282.03 0 -1.55 -544.11c23.32,-1042.59 1121.96,-1107.31 1648.29,-1107.31l3.15 1107.31 704.13 0 0 -2491.48 552.28 0 0 2491.48 595.49 0 0 -2491.48 552.28 0 0 2491.48 526.74 0 0 -911.63 552.28 0 0 911.63 585.93 0c0.65,-267.72 9.74,-536.2 194.55,-749.35 284.56,-342.63 892.57,-354.28 1119.28,53.67 226.7,-407.95 834.72,-396.31 1119.28,-53.67 184.81,213.15 193.9,481.63 194.55,749.35l444 0 0 -911.63 552.28 0 0 911.63 581.09 0 0 -1107.31 0.95 0zm-862.01 -695.89l390.46 390.46 -390.46 390.46 -390.43 -390.46 390.43 -390.46zm-4209.86 0l390.46 390.46 -390.46 390.46 -390.43 -390.46 390.43 -390.46zm-8436.43 2659.49l390.46 390.46 -390.46 390.46 -274.53 -274.56 -274.53 274.56 -390.46 -390.46 390.46 -390.46 274.53 274.56 274.53 -274.56zm13501.96 0l390.46 390.46 -390.46 390.46 -274.53 -274.56 -274.53 274.56 -390.46 -390.46 390.46 -390.46 274.53 274.56 274.53 -274.56zm-14453.92 -140.36l-281.1 0 -0.03 -882.67c0,-380.72 -470.83,-406.64 -470.6,0.52l0.91 1426.27 -563 0 0 -1260.04c0.65,-267.72 9.74,-536.2 194.55,-749.35 284.56,-342.63 892.57,-354.28 1119.28,53.67 226.7,-407.95 834.72,-396.31 1119.28,-53.67 184.81,213.15 193.9,481.63 194.55,749.35l528.99 0 0 -911.63 552.28 0 0 911.63 1026.59 0 0 -911.63 552.2 0 0.08 1455.75 -3223.14 0 0.9 -710.34c0.52,-407.16 -470.6,-381.21 -470.6,-0.52l-0.02 882.67 -281.1 0zm5084.19 -715.93l550.48 0c-0.51,-183.49 -1.03,-367.04 -1.54,-550.48 -175.5,0 -541.74,21.59 -549.45,369.07l0.52 181.4z"/>
   <path class="fil1" d="M8593.5 10817.94l82.52 -462.56 121.24 0 59.51 249.46 147.93 -249.46 126.81 0 -82.52 462.56 -128.93 0 54.26 -304.13 -179.04 304.13 -12.4 0 -70.22 -290.67 -51.85 290.67 -67.3 0zm647.69 -462.56l129.63 0 -48.87 273.9c-8.11,45.45 -7.31,77.32 2.28,95.87 9.57,18.41 29.52,27.62 59.99,27.62 30.34,0 53.59,-9.21 69.49,-27.5 15.9,-18.3 27.99,-50.3 36.13,-95.98l48.86 -273.9 65.87 0 -52.57 294.67c-10.65,59.74 -33.75,104.5 -69.19,134.36 -35.42,29.88 -83.42,44.87 -144.11,44.87 -27.5,0 -52.81,-4.48 -76.26,-13.35 -23.31,-8.85 -41.27,-20.78 -53.82,-35.78 -12.87,-15.22 -21.01,-32.47 -24.08,-51.59 -3.21,-19.13 -1.83,-45.33 4.07,-78.52l52.57 -294.67zm702.98 197.62l35.26 -197.62 129.63 0 -82.52 462.56 -129.63 0 36.15 -202.59 -138.84 0 -36.15 202.59 -129.63 0 82.52 -462.56 129.63 0 -35.26 197.62 138.84 0zm302.97 69.42l114.18 0 -30.3 -165.75 -83.87 165.75zm-166.63 195.52l241.31 -462.56 125.15 0 86.91 462.56 -137.67 0 -24.37 -136.72 -155.26 0 -70.31 136.72 -65.75 0zm507.08 0l82.52 -462.56 121.25 0 59.5 249.46 147.93 -249.46 126.81 0 -82.52 462.56 -128.93 0 54.26 -304.13 -179.04 304.13 -12.4 0 -70.22 -290.67 -51.85 290.67 -67.3 0zm567.29 0l82.52 -462.56 121.25 0 59.5 249.46 147.93 -249.46 126.81 0 -82.52 462.56 -128.93 0 54.26 -304.13 -179.04 304.13 -12.4 0 -70.22 -290.67 -51.85 290.67 -67.3 0zm675.84 -195.52l114.18 0 -30.3 -165.75 -83.87 165.75zm-166.63 195.52l241.31 -462.56 125.15 0 86.9 462.56 -137.66 0 -24.37 -136.72 -155.26 0 -70.31 136.72 -65.75 0zm708.09 -400.23l-60.27 337.89 44.64 0c42.61,0 78.29,-14.64 106.77,-43.92 28.48,-29.28 47.59,-70.95 57.22,-124.92 9.63,-53.95 5.37,-95.61 -12.76,-125.02 -18.26,-29.4 -48.59,-44.04 -90.97,-44.04l-44.64 0zm-201.01 400.23l82.52 -462.56 156.32 0c45.69,0 81.92,3.3 108.73,9.91 26.93,6.49 50.23,17.48 70.22,32.59 29.01,21.96 49.84,49.58 62.26,83.11 12.58,33.42 15.46,68.94 8.77,106.49 -6.42,36.01 -19.5,69.54 -39.21,100.6 -19.79,30.93 -45.01,57.72 -75.85,80.39 -22.22,15.94 -47.17,28.1 -75.03,36.72 -27.83,8.5 -56.82,12.75 -87.05,12.75l-211.68 0zm658.91 0l-129.63 0 82.52 -462.56 129.63 0 -82.52 462.56zm180.74 0l39.06 -219 -91.83 -243.56 143.91 0 58.39 177.09 128.74 -177.09 67.07 0 -173.96 236.58 -40.31 225.98 -131.06 0zm371.48 -195.52l114.17 0 -30.3 -165.75 -83.87 165.75zm-166.63 195.52l241.31 -462.56 125.15 0 86.9 462.56 -137.67 0 -24.37 -136.72 -155.26 0 -70.31 136.72 -65.75 0zm822.81 -264.94l35.26 -197.62 129.63 0 -82.52 462.56 -129.63 0 36.15 -202.59 -138.84 0 -36.15 202.59 -129.63 0 82.52 -462.56 129.63 0 -35.26 197.62 138.84 0zm480.61 264.94l39.06 -219 -91.83 -243.56 143.91 0 58.39 177.09 128.74 -177.09 67.07 0 -173.96 236.58 -40.31 225.98 -131.06 0zm441.57 -230.46c-10.35,57.97 -8.96,103.19 4.15,135.66 13.09,32.47 36.16,48.75 69.09,48.75 33.17,0 62.05,-16.28 86.75,-48.75 24.68,-32.47 42.18,-77.69 52.53,-135.66 10.31,-57.85 8.91,-102.95 -4.09,-135.29 -12.99,-32.47 -36.17,-48.66 -69.46,-48.66 -33.19,0 -62.05,16.19 -86.61,48.66 -24.55,32.33 -42.03,77.44 -52.35,135.29zm149.19 -241.31c31.99,0 61.78,5.19 89.28,15.7 27.65,10.51 50.27,25.38 68.11,44.5 21.55,22.8 36.13,49.59 43.74,80.39 7.62,30.71 8.2,64.59 1.63,101.43 -6.54,36.72 -19.17,70.37 -37.93,100.83 -18.69,30.58 -42.68,57.26 -72.12,80.05 -24.91,19.12 -52.83,34 -83.98,44.5 -31.03,10.51 -62.65,15.7 -94.88,15.7 -32.12,0 -61.87,-5.31 -89.26,-15.94 -27.37,-10.63 -50,-25.38 -67.89,-44.27 -21.58,-23.28 -36.26,-50.19 -43.77,-80.88 -7.63,-30.69 -8.1,-64.47 -1.53,-101.31 6.47,-36.24 19.06,-69.77 37.92,-100.7 18.71,-30.81 42.75,-57.74 72.19,-80.53 24.39,-18.89 52.15,-33.53 83.28,-43.91 31.14,-10.39 62.87,-15.59 95.23,-15.59zm701.94 398.7c-36.52,27.39 -75.44,48.41 -116.73,62.8 -41.3,14.41 -83.19,21.61 -125.59,21.61 -32.58,0 -61.74,-4.62 -87.51,-13.7 -25.89,-9.1 -48.06,-22.56 -66.5,-40.26 -24.93,-23.74 -41.59,-51.36 -50.31,-82.65 -8.69,-31.41 -9.51,-67.06 -2.36,-107.2 6.17,-34.59 19.3,-67.88 39.39,-99.76 20.11,-31.99 45.15,-59.15 74.98,-81.46 26,-19.36 54.22,-34 84.56,-43.93 30.48,-9.91 62.16,-14.87 95.46,-14.87 42.38,0 77.83,8.5 106.33,25.38 28.5,17 51.1,43.21 67.79,78.75l-66.4 43.21c-8.7,-29.98 -21.92,-52.54 -39.54,-67.53 -17.64,-14.99 -39.44,-22.43 -65.54,-22.43 -39.91,0 -73.7,16.06 -101.4,48.28 -27.58,32.12 -46.68,77.57 -57.17,136.37 -9.54,53.49 -4.89,96.93 13.85,130.23 18.74,33.28 47.78,49.93 87.31,49.93 14.76,0 28.96,-2.24 42.63,-6.72 13.8,-4.48 27.51,-11.22 41.39,-20.19l23 -128.93 126.09 0 -23.75 133.07zm116.14 73.07l39.06 -219 -91.84 -243.56 143.91 0 58.39 177.09 128.75 -177.09 67.06 0 -173.96 236.58 -40.31 225.98 -131.06 0zm371.48 -195.52l114.17 0 -30.3 -165.75 -83.87 165.75zm-166.64 195.52l241.31 -462.56 125.15 0 86.91 462.56 -137.67 0 -24.37 -136.72 -155.26 0 -70.31 136.72 -65.76 0zm767.54 0l-83.9 -227.98 180 -234.57 68.11 0 -130.19 169.17 109.3 293.39 -143.32 0zm-260.46 0l82.52 -462.56 129.63 0 -82.52 462.56 -129.63 0zm537.83 -195.52l114.17 0 -30.3 -165.75 -83.87 165.75zm-166.64 195.52l241.31 -462.56 125.15 0 86.91 462.56 -137.67 0 -24.37 -136.72 -155.26 0 -70.31 136.72 -65.75 0zm507.08 0l82.52 -462.56 201.78 0c58.08,0 101.4,12.63 130.07,37.9 28.54,25.26 38.93,59.72 31.11,103.53 -5.7,31.99 -19.38,58.32 -41.06,78.64 -21.6,20.42 -51.1,34.94 -88.38,43.44l76.29 199.05 -144.87 0 -70.91 -235.17 29.05 0c32.1,0 57.19,-6.85 75.23,-20.67 18.01,-13.7 29.52,-34.48 34.5,-62.45 5.28,-29.51 1.13,-51.36 -12.49,-65.65 -13.66,-14.16 -37.53,-21.25 -71.78,-21.25l-32.7 0 -72.27 405.19 -126.09 0zm547.57 0l71.38 -400.23 -123.26 0 11.13 -62.33 376.14 0 -11.13 62.33 -123.26 0 -71.38 400.23 -129.63 0zm398.39 -195.52l114.18 0 -30.31 -165.75 -83.87 165.75zm-166.63 195.52l241.31 -462.56 125.15 0 86.9 462.56 -137.66 0 -24.37 -136.72 -155.26 0 -70.31 136.72 -65.75 0z"/>
   <path class="fil1" d="M5534.46 8003.35l115.38 -646.89 169.56 0 83.24 348.86 206.85 -348.86 177.33 0 -115.38 646.89 -180.3 0 75.87 -425.32 -250.38 425.32 -17.34 0 -98.24 -406.5 -72.5 406.5 -94.1 0zm945.15 -273.42l159.66 0 -42.35 -231.81 -117.31 231.81zm-233.02 273.42l337.45 -646.89 175.01 0 121.56 646.89 -192.53 0 -34.08 -191.2 -217.12 0 -98.34 191.2 -91.96 0zm990.26 -559.72l-84.28 472.54 62.41 0c59.61,0 109.49,-20.46 149.31,-61.41 39.83,-40.94 66.57,-99.23 80.03,-174.69 13.45,-75.46 7.5,-133.74 -17.85,-174.85 -25.53,-41.11 -67.93,-61.59 -127.21,-61.59l-62.41 0zm-281.12 559.72l115.38 -646.89 218.6 0c63.9,0 114.59,4.61 152.07,13.87 37.68,9.08 70.27,24.43 98.2,45.56 40.58,30.7 69.69,69.35 87.08,116.24 17.59,46.72 21.6,96.43 12.24,148.92 -8.99,50.37 -27.25,97.26 -54.81,140.68 -27.69,43.27 -62.96,80.75 -106.09,112.44 -31.06,22.29 -65.93,39.3 -104.93,51.35 -38.93,11.89 -79.46,17.83 -121.71,17.83l-296.05 0zm738.2 0l115.38 -646.89 282.18 0c81.23,0 141.83,17.66 181.91,53 39.92,35.33 54.44,83.54 43.52,144.8 -7.98,44.74 -27.09,81.56 -57.42,109.96 -30.19,28.56 -71.47,48.88 -123.63,60.76l106.72 278.37 -202.59 0 -99.19 -328.89 40.63 0c44.9,0 79.96,-9.58 105.21,-28.9 25.2,-19.14 41.29,-48.2 48.27,-87.34 7.35,-41.27 1.58,-71.81 -17.48,-91.8 -19.07,-19.82 -52.48,-29.72 -100.36,-29.72l-45.74 0 -101.07 566.66 -176.33 0zm814.53 -273.42l159.66 0 -42.35 -231.81 -117.31 231.81zm-233.02 273.42l337.45 -646.89 175.01 0 121.56 646.89 -192.52 0 -34.08 -191.2 -217.12 0 -98.33 191.2 -91.96 0zm789.82 -164.44c7.64,31.2 19.88,55.14 36.69,71.99 16.85,16.68 37.3,25.09 61.09,25.09 24.59,0 46.02,-7.27 64.31,-21.8 18.42,-14.35 29.61,-32.69 33.49,-54.48 3.18,-17.84 0.1,-33.85 -9.24,-48.22 -9.36,-14.19 -26.22,-28.88 -50.66,-43.57l-23.26 -14.05c-53.19,-31.37 -84.81,-52.17 -94.87,-62.41 -20.79,-21.29 -34.32,-42.59 -40.8,-63.72 -6.3,-21.14 -7,-45.91 -1.96,-74.14 11.13,-62.41 41.16,-113.28 89.99,-152.72 48.8,-39.46 106.81,-59.28 173.86,-59.28 47.22,0 86.59,10.74 118.26,32.2 31.67,21.45 53.9,52.33 66.66,92.78l-82.81 51.35c-7.32,-31.03 -19.53,-54.31 -36.57,-69.83 -17.06,-15.53 -39.27,-23.29 -66.67,-23.29 -22.79,0 -43.06,7.1 -60.6,21.31 -17.57,14.19 -28.19,32.03 -31.99,53.33 -3.2,18 0.24,33.83 10.22,47.38 9.96,13.53 30.9,29.38 63.19,47.54l10.92 6.29c60.35,32.85 96.23,54.81 107.72,66.2 20.45,19.65 33.94,40.29 40.63,62.07 6.51,21.8 7.27,47.06 2.09,76.12 -11.34,63.57 -42.67,115.24 -94.2,155.2 -51.56,39.95 -112.74,59.93 -183.74,59.93 -50.69,0 -93.44,-11.06 -128.27,-33.35 -35,-22.29 -58.96,-53.65 -72.02,-94.28l98.56 -53.65zm609.03 -108.97l159.66 0 -42.35 -231.81 -117.31 231.81zm-233.02 273.42l337.45 -646.89 175.01 0 121.56 646.89 -192.53 0 -34.08 -191.2 -217.12 0 -98.34 191.2 -91.96 0zm1150.69 -370.5l49.29 -276.39 181.28 0 -115.38 646.89 -181.29 0 50.54 -283.32 -194.17 0 -50.54 283.32 -181.28 0 115.38 -646.89 181.29 0 -49.29 276.39 194.17 0z"/>
   <path class="fil1" d="M11113.64 7804.26c64.89,-134.07 310.55,-462.68 471.36,-462.68 7.78,0 14.47,0 22.25,0 18.91,11.09 27.74,22.18 27.78,33.26 0.06,22.17 -10.98,36.64 -32.04,44.43 -83.19,28.94 -249.2,163.63 -248.92,261.85 0.23,80.44 120.24,115.04 189.15,178.66 115.5,106.47 67.99,295.19 -23.24,401.66 -104.87,120.54 -271.42,147.28 -390.48,31.06 -124.19,-118.5 -82.69,-350.08 -15.85,-488.24z"/>
  </g>
 </g>
</svg>
