<?xml version="1.0" encoding="UTF-8"?>
<!DOCTYPE svg PUBLIC "-//W3C//DTD SVG 1.1//EN" "http://www.w3.org/Graphics/SVG/1.1/DTD/svg11.dtd">
<!-- Creator: CorelDRAW -->
<svg xmlns="http://www.w3.org/2000/svg" xml:space="preserve" width="10.6667in" height="10.6667in" version="1.1" style="shape-rendering:geometricPrecision; text-rendering:geometricPrecision; image-rendering:optimizeQuality; fill-rule:evenodd; clip-rule:evenodd"
viewBox="0 0 10666.66 10666.66"
 xmlns:xlink="http://www.w3.org/1999/xlink"
 xmlns:xodm="http://www.corel.com/coreldraw/odm/2003">
 <defs>
  <style type="text/css">
   <![CDATA[
    .fil0 {fill:#0B3F71}
    .fil2 {fill:#0C6DC2}
    .fil1 {fill:#0D4F8C}
    .fil3 {fill:#0D81E4}
    .fil4 {fill:#0FA7B5}
    .fil5 {fill:#11C5D4}
    .fil8 {fill:#32E26F}
    .fil6 {fill:#32E2A1}
    .fil9 {fill:#4EE685}
    .fil7 {fill:#4FE6AF}
    .fil10 {fill:#0D4F8C;fill-rule:nonzero}
    .fil12 {fill:#11C5D4;fill-rule:nonzero}
    .fil11 {fill:#4EE685;fill-rule:nonzero}
   ]]>
  </style>
 </defs>
 <g id="Layer_x0020_1">
  <metadata id="CorelCorpID_0Corel-Layer"/>
  <g id="_1809666938976">
   <g>
    <path class="fil0" d="M4451.41 3424.69l0 0c17.9,-46.07 70.22,-69.1 116.28,-51.2l512.63 199.2c46.06,17.9 69.1,70.21 51.2,116.28l0 0c-17.9,46.06 -70.21,69.1 -116.28,51.2l-512.63 -199.2c-46.07,-17.9 -69.1,-70.21 -51.2,-116.28z"/>
    <rect class="fil1" transform="matrix(4.68596 -1.82086 1.82086 4.68596 4618.34 2797.8)" width="35.74" height="208.13" rx="18.63" ry="18.63"/>
    <path class="fil2" d="M4348.66 4197.85l0 0c-19.92,-45.23 0.79,-98.51 46.02,-118.43l503.34 -221.63c45.23,-19.91 98.51,0.79 118.43,46.02l0 0c19.91,45.23 -0.78,98.51 -46.02,118.43l-503.34 221.63c-45.23,19.91 -98.51,-0.78 -118.42,-46.02z"/>
    <rect class="fil3" transform="matrix(2.02593 -4.60102 4.60102 2.02593 4023.42 3636.54)" width="35.74" height="208.13" rx="18.63" ry="18.63"/>
    <path class="fil4" d="M4822.71 4817.22l0 0c-46.07,-17.9 -69.1,-70.22 -51.2,-116.28l199.2 -512.63c17.9,-46.06 70.21,-69.1 116.28,-51.2l0 0c46.06,17.9 69.1,70.21 51.2,116.28l-199.2 512.63c-17.9,46.06 -70.21,69.1 -116.28,51.2z"/>
    <rect class="fil5" transform="matrix(-1.82086 -4.68596 4.68596 -1.82086 4195.83 4650.29)" width="35.74" height="208.13" rx="18.63" ry="18.63"/>
    <path class="fil6" d="M5595.88 4919.98l0 0c-45.23,19.92 -98.51,-0.79 -118.43,-46.02l-221.63 -503.34c-19.91,-45.23 0.79,-98.51 46.02,-118.43l0 0c45.23,-19.91 98.51,0.79 118.42,46.02l221.63 503.34c19.91,45.23 -0.78,98.51 -46.02,118.43z"/>
    <rect class="fil7" transform="matrix(-4.60102 -2.02593 2.02593 -4.60102 5034.57 5245.21)" width="35.74" height="208.13" rx="18.63" ry="18.63"/>
    <path class="fil8" d="M6215.24 4445.92l0 0c-17.9,46.07 -70.22,69.1 -116.28,51.2l-512.63 -199.2c-46.06,-17.9 -69.1,-70.21 -51.2,-116.28l0 0c17.9,-46.07 70.21,-69.11 116.28,-51.2l512.63 199.2c46.06,17.9 69.1,70.21 51.2,116.28z"/>
    <rect class="fil9" transform="matrix(-4.68596 1.82086 -1.82086 -4.68596 6048.32 5072.81)" width="35.74" height="208.13" rx="18.63" ry="18.63"/>
    <path class="fil6" d="M6318 3672.76l0 0c19.92,45.23 -0.79,98.51 -46.02,118.43l-503.34 221.63c-45.23,19.91 -98.51,-0.79 -118.43,-46.02l0 0c-19.91,-45.23 0.79,-98.51 46.02,-118.42l503.34 -221.63c45.23,-19.91 98.51,0.78 118.43,46.02z"/>
    <rect class="fil7" transform="matrix(-2.02593 4.60102 -4.60102 -2.02593 6643.24 4234.07)" width="35.74" height="208.13" rx="18.63" ry="18.63"/>
    <path class="fil4" d="M5843.94 3053.39l0 0c46.07,17.9 69.1,70.22 51.2,116.28l-199.2 512.63c-17.9,46.06 -70.21,69.1 -116.28,51.2l0 0c-46.07,-17.9 -69.11,-70.21 -51.2,-116.28l199.2 -512.63c17.9,-46.07 70.21,-69.1 116.28,-51.2z"/>
    <rect class="fil5" transform="matrix(1.82086 4.68596 -4.68596 1.82086 6470.83 3220.32)" width="35.74" height="208.13" rx="18.63" ry="18.63"/>
    <path class="fil2" d="M5070.78 2950.64l0 0c45.23,-19.92 98.51,0.79 118.43,46.02l221.63 503.34c19.91,45.23 -0.79,98.51 -46.02,118.43l0 0c-45.23,19.91 -98.51,-0.78 -118.42,-46.02l-221.63 -503.34c-19.91,-45.23 0.78,-98.51 46.02,-118.42z"/>
    <rect class="fil3" transform="matrix(4.60102 2.02593 -2.02593 4.60102 5632.09 2625.4)" width="35.74" height="208.13" rx="18.63" ry="18.63"/>
   </g>
   <g>
    <path class="fil10" d="M2024.14 6930.8c-95.95,0 -182.3,-11.99 -259.06,-35.98 -76.76,-23.99 -150.09,-66.14 -219.99,-126.44 -17.82,-15.08 -31.53,-32.21 -41.12,-51.41 -9.59,-19.19 -14.39,-38.38 -14.39,-57.57 0,-31.52 11.31,-59.28 33.93,-83.27 22.62,-23.98 51.06,-35.98 85.33,-35.98 26.04,0 49.34,8.22 69.91,24.67 52.09,42.49 103.83,74.7 155.23,96.63 51.4,21.93 114.8,32.9 190.19,32.9 50.71,0 97.32,-7.88 139.81,-23.64 42.49,-15.77 76.76,-37.01 102.8,-63.74 26.04,-26.73 39.07,-57.22 39.07,-91.5 0,-41.12 -12.34,-76.07 -37.01,-104.85 -24.67,-28.78 -62.37,-53.11 -113.09,-72.99 -50.71,-19.88 -115.13,-35.3 -193.26,-46.26 -74.02,-10.96 -139.13,-27.76 -195.33,-50.37 -56.2,-22.62 -103.14,-51.4 -140.83,-86.35 -37.69,-34.95 -66.14,-76.07 -85.33,-123.36 -19.19,-47.29 -28.78,-100.4 -28.78,-159.34 0,-89.09 22.96,-165.17 68.87,-228.22 45.92,-63.05 107.94,-111.03 186.07,-143.92 78.13,-32.9 164.48,-49.35 259.06,-49.35 89.09,0 171.68,13.36 247.75,40.09 76.07,26.73 138.1,60.65 186.07,101.78 39.75,31.53 59.63,67.85 59.63,108.97 0,30.15 -11.65,57.57 -34.95,82.24 -23.3,24.67 -50.72,37.01 -82.24,37.01 -20.56,0 -39.06,-6.17 -55.51,-18.5 -21.93,-19.19 -51.4,-37.35 -88.41,-54.48 -37.01,-17.13 -76.07,-31.53 -117.19,-43.18 -41.12,-11.65 -79.5,-17.48 -115.14,-17.48 -58.94,0 -108.63,7.54 -149.06,22.61 -40.43,15.08 -70.93,35.64 -91.5,61.68 -20.56,26.04 -30.84,56.2 -30.84,90.47 0,41.12 11.99,75.04 35.98,101.77 23.99,26.73 58.6,47.98 103.83,63.74 45.23,15.76 99.37,29.81 162.43,42.15 82.24,15.08 154.55,32.9 216.91,53.46 62.37,20.56 114.11,46.94 155.23,79.16 41.12,32.21 71.96,72.65 92.52,121.31 20.56,48.66 30.84,107.94 30.84,177.85 0,89.09 -24.67,165.85 -74.02,230.28 -49.34,64.43 -114.11,113.77 -194.3,148.04 -80.19,34.27 -166.88,51.4 -260.09,51.4zm1560.53 -1120.54c35.64,0 65.11,11.99 88.41,35.98 23.3,23.99 34.95,53.8 34.95,89.44l0 873.81c0,126.11 -23.64,226.51 -70.93,301.21 -47.29,74.7 -110.69,128.5 -190.19,161.4 -79.5,32.9 -168.59,49.35 -267.29,49.35 -43.86,0 -90.46,-3.43 -139.81,-10.28 -49.35,-6.85 -89.78,-17.13 -121.31,-30.84 -41.12,-17.81 -69.56,-40.09 -85.33,-66.82 -15.76,-26.73 -18.85,-55.17 -9.25,-85.33 12.34,-39.75 32.21,-66.82 59.63,-81.21 27.41,-14.39 56.2,-16.11 86.35,-5.14 21.93,6.85 50.72,17.48 86.35,31.87 35.64,14.39 76.76,21.59 123.36,21.59 63.06,0 115.48,-8.57 157.29,-25.7 41.81,-17.13 73.33,-45.92 94.58,-86.35 21.25,-40.44 31.87,-95.61 31.87,-165.51l0 -137.76 43.17 49.35c-23.3,45.23 -52.43,82.59 -87.38,112.06 -34.95,29.47 -76.42,51.74 -124.39,66.82 -47.98,15.08 -102.8,22.62 -164.48,22.62 -72.65,0 -136.04,-16.79 -190.18,-50.37 -54.15,-33.58 -96.29,-80.19 -126.45,-139.81 -30.15,-59.63 -45.23,-127.81 -45.23,-204.57l0 -600.36c0,-35.64 11.65,-65.45 34.95,-89.44 23.3,-23.99 52.77,-35.98 88.41,-35.98 35.64,0 65.11,11.99 88.41,35.98 23.3,23.99 34.95,53.8 34.95,89.44l0 526.35c0,89.09 19.53,151.8 58.59,188.13 39.07,36.32 93.55,54.48 163.46,54.48 47.98,0 88.41,-9.25 121.31,-27.76 32.9,-18.5 58.26,-45.92 76.07,-82.24 17.82,-36.33 26.72,-80.53 26.72,-132.61l0 -526.35c0,-35.64 11.65,-65.45 34.96,-89.44 23.3,-23.99 52.77,-35.98 88.41,-35.98zm1291.19 -20.56c35.64,0 65.11,11.65 88.41,34.95 23.3,23.3 34.95,53.45 34.95,90.46l0 869.7c0,35.64 -11.65,65.45 -34.95,89.44 -23.3,23.98 -52.77,35.98 -88.41,35.98 -35.64,0 -65.11,-11.99 -88.41,-35.98 -23.3,-23.99 -34.95,-53.8 -34.95,-89.44l0 -100.74 45.23 18.5c0,17.82 -9.59,39.41 -28.78,64.76 -19.19,25.36 -45.23,50.37 -78.13,75.05 -32.9,24.67 -71.62,45.57 -116.17,62.71 -44.54,17.13 -92.86,25.7 -144.95,25.7 -94.57,0 -180.24,-24.33 -257,-72.99 -76.76,-48.66 -137.41,-115.83 -181.96,-201.49 -44.55,-85.67 -66.82,-184.02 -66.82,-295.04 0,-112.4 22.28,-211.43 66.82,-297.1 44.55,-85.67 104.51,-152.83 179.9,-201.49 75.39,-48.66 159,-72.99 250.84,-72.99 58.94,0 113.08,8.91 162.43,26.72 49.34,17.82 92.18,40.44 128.5,67.85 36.33,27.41 64.43,55.17 84.3,83.27 19.87,28.1 29.81,51.74 29.81,70.93l-74.02 26.73 0 -150.09c0,-35.64 11.65,-65.45 34.95,-89.44 23.3,-23.99 52.77,-35.98 88.41,-35.98zm-415.32 914.93c60.31,0 113.08,-15.07 158.31,-45.23 45.23,-30.15 80.53,-71.28 105.89,-123.36 25.36,-52.09 38.04,-110.34 38.04,-174.76 0,-65.79 -12.68,-124.73 -38.04,-176.82 -25.36,-52.09 -60.65,-93.2 -105.89,-123.36 -45.24,-30.15 -98,-45.23 -158.31,-45.23 -58.94,0 -111.03,15.08 -156.26,45.23 -45.23,30.16 -80.53,71.28 -105.89,123.36 -25.36,52.09 -38.04,111.03 -38.04,176.82 0,64.43 12.68,122.68 38.04,174.76 25.36,52.09 60.65,93.21 105.89,123.36 45.23,30.16 97.32,45.23 156.26,45.23zm1383.71 -914.93c109.65,0 190.52,26.38 242.61,79.16 52.08,52.77 86.35,120.96 102.8,204.57l-34.95 -18.5 16.45 -32.9c16.45,-31.53 41.81,-65.45 76.07,-101.78 34.26,-36.32 75.73,-67.16 124.39,-92.52 48.66,-25.36 103.15,-38.04 163.45,-38.04 98.69,0 173.74,21.24 225.14,63.74 51.4,42.49 86.7,99.03 105.89,169.62 19.19,70.59 28.78,149.06 28.78,235.42l0 526.34c0,35.64 -11.65,65.45 -34.95,89.44 -23.3,23.98 -52.77,35.98 -88.41,35.98 -35.64,0 -65.11,-11.99 -88.41,-35.98 -23.3,-23.99 -34.95,-53.8 -34.95,-89.44l0 -526.34c0,-45.23 -5.48,-86.01 -16.45,-122.33 -10.96,-36.32 -30.84,-65.45 -59.63,-87.38 -28.78,-21.93 -69.9,-32.9 -123.36,-32.9 -52.08,0 -96.63,10.96 -133.64,32.9 -37.01,21.93 -64.76,51.06 -83.27,87.38 -18.5,36.32 -27.76,77.1 -27.76,122.33l0 526.34c0,35.64 -11.65,65.45 -34.95,89.44 -23.3,23.98 -52.77,35.98 -88.41,35.98 -35.64,0 -65.11,-11.99 -88.41,-35.98 -23.3,-23.99 -34.95,-53.8 -34.95,-89.44l0 -526.34c0,-45.23 -5.48,-86.01 -16.45,-122.33 -10.96,-36.32 -30.84,-65.45 -59.63,-87.38 -28.78,-21.93 -69.91,-32.9 -123.36,-32.9 -52.09,0 -96.63,10.96 -133.64,32.9 -37.01,21.93 -64.76,51.06 -83.27,87.38 -18.5,36.32 -27.75,77.1 -27.75,122.33l0 526.34c0,35.64 -11.65,65.45 -34.96,89.44 -23.3,23.98 -52.77,35.98 -88.41,35.98 -35.64,0 -65.11,-11.99 -88.41,-35.98 -23.3,-23.99 -34.95,-53.8 -34.95,-89.44l0 -849.14c0,-35.64 11.65,-65.45 34.95,-89.44 23.3,-23.99 52.77,-35.98 88.41,-35.98 35.63,0 65.11,11.99 88.41,35.98 23.3,23.99 34.96,53.8 34.96,89.44l0 88.41 -30.84 -6.17c12.33,-23.3 29.47,-48.31 51.4,-75.04 21.93,-26.73 48.66,-51.74 80.19,-75.04 31.52,-23.3 66.48,-42.15 104.86,-56.54 38.38,-14.39 80.19,-21.59 125.42,-21.59zm1254.19 949.89c-13.71,-19.19 -19.88,-43.86 -18.51,-74.02 1.37,-30.16 19.19,-56.2 53.46,-78.13 21.93,-13.71 45.24,-19.53 69.91,-17.48 24.67,2.06 48.66,14.74 71.96,38.04 39.75,39.75 81.56,70.59 125.42,92.52 43.86,21.93 98.69,32.9 164.48,32.9 20.56,-1.37 43.18,-4.46 67.85,-9.26 24.67,-4.8 46.26,-15.76 64.76,-32.89 18.5,-17.13 27.76,-43.52 27.76,-79.16 0,-30.16 -10.28,-54.15 -30.84,-71.96 -20.56,-17.82 -47.63,-32.9 -81.21,-45.24 -33.58,-12.33 -70.93,-23.98 -112.06,-34.95 -42.49,-12.34 -86.01,-26.05 -130.56,-41.12 -44.55,-15.08 -85.32,-34.61 -122.33,-58.6 -37.01,-23.99 -67.16,-55.85 -90.46,-95.61 -23.3,-39.75 -34.95,-89.78 -34.95,-150.09 0,-68.54 19.19,-126.79 57.57,-174.77 38.38,-47.97 88.07,-84.98 149.06,-111.02 61,-26.04 125.08,-39.06 192.24,-39.06 42.49,0 87.04,5.14 133.65,15.42 46.6,10.28 91.15,26.73 133.64,49.35 42.49,22.61 78.13,52.43 106.91,89.44 15.07,20.56 23.99,45.23 26.73,74.02 2.74,28.79 -10.28,54.83 -39.07,78.13 -20.56,16.45 -44.55,23.65 -71.96,21.59 -27.41,-2.06 -50.03,-11.31 -67.85,-27.76 -23.3,-30.16 -54.48,-54.15 -93.55,-71.96 -39.06,-17.82 -83.96,-26.72 -134.67,-26.72 -20.56,0 -42.83,2.4 -66.82,7.19 -23.98,4.8 -44.89,15.08 -62.71,30.84 -17.82,15.76 -26.73,40.78 -26.73,75.04 0,31.53 10.28,56.54 30.84,75.05 20.56,18.5 48.32,33.58 83.27,45.23 34.95,11.65 72.3,22.96 112.06,33.93 41.12,10.96 82.93,23.98 125.42,39.06 42.49,15.08 81.56,34.95 117.19,59.63 35.64,24.67 64.42,56.54 86.35,95.6 21.93,39.07 32.89,88.76 32.89,149.07 0,69.91 -20.56,129.53 -61.68,178.87 -41.12,49.35 -92.52,86.7 -154.2,112.06 -61.68,25.36 -124.73,38.04 -189.15,38.04 -80.87,0 -161.74,-14.05 -242.61,-42.15 -80.87,-28.1 -148.04,-77.79 -201.49,-149.06z"/>
    <path class="fil11" d="M9053.73 5789.7c35.64,0 65.11,11.65 88.41,34.95 23.3,23.3 34.95,53.45 34.95,90.46l0 869.7c0,35.64 -11.65,65.45 -34.95,89.44 -23.3,23.98 -52.77,35.98 -88.41,35.98 -35.64,0 -65.11,-11.99 -88.41,-35.98 -23.3,-23.99 -34.95,-53.8 -34.95,-89.44l0 -100.74 45.23 18.5c0,17.82 -9.59,39.41 -28.78,64.76 -19.19,25.36 -45.23,50.37 -78.13,75.05 -32.9,24.67 -71.62,45.57 -116.17,62.71 -44.55,17.13 -92.87,25.7 -144.95,25.7 -94.57,0 -180.24,-24.33 -257,-72.99 -76.76,-48.66 -137.41,-115.83 -181.96,-201.49 -44.55,-85.67 -66.82,-184.02 -66.82,-295.04 0,-112.4 22.28,-211.43 66.82,-297.1 44.55,-85.67 104.51,-152.83 179.9,-201.49 75.39,-48.66 159,-72.99 250.84,-72.99 58.94,0 113.08,8.91 162.43,26.72 49.34,17.82 92.18,40.44 128.5,67.85 36.33,27.41 64.43,55.17 84.3,83.27 19.87,28.1 29.81,51.74 29.81,70.93l-74.02 26.73 0 -150.09c0,-35.64 11.65,-65.45 34.95,-89.44 23.3,-23.99 52.77,-35.98 88.41,-35.98zm-415.32 914.93c60.31,0 113.08,-15.07 158.31,-45.23 45.23,-30.15 80.53,-71.28 105.89,-123.36 25.36,-52.09 38.04,-110.34 38.04,-174.76 0,-65.79 -12.68,-124.73 -38.04,-176.82 -25.36,-52.09 -60.65,-93.2 -105.89,-123.36 -45.24,-30.15 -98,-45.23 -158.31,-45.23 -58.94,0 -111.03,15.08 -156.26,45.23 -45.23,30.16 -80.53,71.28 -105.89,123.36 -25.36,52.09 -38.04,111.03 -38.04,176.82 0,64.43 12.68,122.68 38.04,174.76 25.36,52.09 60.65,93.21 105.89,123.36 45.23,30.16 97.32,45.23 156.26,45.23z"/>
   </g>
   <g>
    <path class="fil12" d="M2573.69 7902.88c0,3.81 -1.43,7.16 -4.3,10.02 -2.87,2.86 -6.2,4.3 -10.02,4.3 -4.13,0 -7.56,-1.43 -10.26,-4.3 -2.7,-2.86 -4.06,-6.2 -4.06,-10.02l0 -219.51c0,-3.82 1.35,-7.16 4.06,-10.02 2.7,-2.86 6.13,-4.3 10.26,-4.3 4.14,0 7.56,1.43 10.26,4.3 2.7,2.86 4.06,6.2 4.06,10.02l0 219.51zm-14.32 -265.8c-6.68,0 -11.69,-1.51 -15.03,-4.53 -3.34,-3.02 -5.01,-7.4 -5.01,-13.12l0 -4.78c0,-5.72 1.83,-10.1 5.48,-13.12 3.66,-3.02 8.67,-4.53 15.04,-4.53 6.04,0 10.74,1.51 14.07,4.53 3.34,3.02 5.01,7.4 5.01,13.12l0 4.78c0,5.72 -1.67,10.1 -5.01,13.12 -3.34,3.02 -8.19,4.53 -14.56,4.53zm120.25 265.8c0,3.81 -1.43,7.16 -4.3,10.02 -2.86,2.86 -6.2,4.3 -10.02,4.3 -4.13,0 -7.56,-1.43 -10.26,-4.3 -2.7,-2.86 -4.06,-6.2 -4.06,-10.02l0 -324.5c0,-3.82 1.43,-7.16 4.3,-10.02 2.86,-2.86 6.2,-4.3 10.02,-4.3 4.14,0 7.56,1.43 10.26,4.3 2.7,2.86 4.06,6.2 4.06,10.02l0 324.5zm109.76 0c0,3.81 -1.43,7.16 -4.3,10.02 -2.86,2.86 -6.2,4.3 -10.02,4.3 -4.13,0 -7.56,-1.43 -10.26,-4.3 -2.7,-2.86 -4.06,-6.2 -4.06,-10.02l0 -324.5c0,-3.82 1.43,-7.16 4.3,-10.02 2.86,-2.86 6.2,-4.3 10.02,-4.3 4.14,0 7.56,1.43 10.26,4.3 2.7,2.86 4.06,6.2 4.06,10.02l0 324.5zm258.17 -228.1c4.14,0 7.56,1.43 10.26,4.3 2.7,2.86 4.06,6.2 4.06,10.02l0 134.57c0,31.5 -8.91,55.52 -26.72,72.06 -17.81,16.54 -41.83,24.81 -72.06,24.81 -29.9,0 -53.69,-8.27 -71.34,-24.81 -17.66,-16.54 -26.48,-40.56 -26.48,-72.06l0 -134.57c0,-3.82 1.35,-7.16 4.06,-10.02 2.7,-2.87 6.12,-4.3 10.26,-4.3 4.13,0 7.56,1.43 10.26,4.3 2.7,2.86 4.06,6.2 4.06,10.02l0 134.57c0,22.91 6.13,40.32 18.37,52.25 12.25,11.93 29.19,17.9 50.82,17.9 21.95,0 39.13,-5.96 51.54,-17.9 12.41,-11.93 18.61,-29.35 18.61,-52.25l0 -134.57c0,-3.82 1.27,-7.16 3.82,-10.02 2.54,-2.87 6.04,-4.3 10.5,-4.3zm198.99 -3.34c19.72,0 36.58,5.17 50.58,15.51 14,10.34 23.54,25.69 28.63,46.05l-6.68 1.91 2.87 -8.59c4.13,-9.54 11.06,-18.53 20.76,-26.96 9.7,-8.43 20.76,-15.19 33.17,-20.28 12.41,-5.09 24.97,-7.64 37.7,-7.64 20.04,0 36.19,4.3 48.43,12.89 12.25,8.59 21.16,20.12 26.72,34.6 5.57,14.47 8.35,30.78 8.35,48.91l0 135.05c0,3.81 -1.35,7.16 -4.06,10.02 -2.7,2.86 -6.12,4.3 -10.26,4.3 -4.13,0 -7.56,-1.43 -10.26,-4.3 -2.7,-2.86 -4.06,-6.2 -4.06,-10.02l0 -133.62c0,-13.04 -2.07,-24.97 -6.2,-35.79 -4.13,-10.82 -10.66,-19.41 -19.57,-25.77 -8.91,-6.36 -20.83,-9.54 -35.79,-9.54 -13.04,0 -25.53,3.18 -37.46,9.54 -11.93,6.36 -21.63,14.95 -29.11,25.77 -7.48,10.81 -11.21,22.74 -11.21,35.79l0 133.62c0,3.81 -1.35,7.16 -4.06,10.02 -2.7,2.86 -6.12,4.3 -10.26,4.3 -4.13,0 -7.56,-1.43 -10.26,-4.3 -2.7,-2.86 -4.06,-6.2 -4.06,-10.02l0 -135.05c0,-13.04 -1.91,-24.81 -5.72,-35.31 -3.82,-10.5 -10.02,-18.85 -18.61,-25.05 -8.59,-6.2 -20.2,-9.31 -34.84,-9.31 -13.04,0 -25.37,3.1 -36.98,9.31 -11.61,6.2 -21,14.56 -28.16,25.05 -7.16,10.5 -10.74,22.27 -10.74,35.31l0 135.05c0,3.81 -1.43,7.16 -4.3,10.02 -2.86,2.86 -6.2,4.3 -10.02,4.3 -4.46,0 -7.95,-1.43 -10.5,-4.3 -2.54,-2.86 -3.81,-6.2 -3.81,-10.02l0 -213.79c0,-3.82 1.35,-7.16 4.06,-10.02 2.7,-2.87 6.12,-4.3 10.26,-4.3 4.13,0 7.56,1.43 10.26,4.3 2.7,2.86 4.06,6.2 4.06,10.02l0 44.38 -12.89 17.65c0.96,-9.54 4.06,-19.09 9.31,-28.63 5.25,-9.54 12.17,-18.13 20.76,-25.77 8.59,-7.63 18.37,-13.76 29.35,-18.37 10.98,-4.61 22.51,-6.92 34.6,-6.92zm353.13 231.44c0,3.81 -1.43,7.16 -4.3,10.02 -2.87,2.86 -6.2,4.3 -10.02,4.3 -4.13,0 -7.56,-1.43 -10.26,-4.3 -2.7,-2.86 -4.06,-6.2 -4.06,-10.02l0 -219.51c0,-3.82 1.35,-7.16 4.06,-10.02 2.7,-2.86 6.13,-4.3 10.26,-4.3 4.14,0 7.56,1.43 10.26,4.3 2.7,2.86 4.06,6.2 4.06,10.02l0 219.51zm-14.32 -265.8c-6.68,0 -11.69,-1.51 -15.03,-4.53 -3.34,-3.02 -5.01,-7.4 -5.01,-13.12l0 -4.78c0,-5.72 1.83,-10.1 5.48,-13.12 3.66,-3.02 8.67,-4.53 15.04,-4.53 6.04,0 10.74,1.51 14.07,4.53 3.34,3.02 5.01,7.4 5.01,13.12l0 4.78c0,5.72 -1.67,10.1 -5.01,13.12 -3.34,3.02 -8.19,4.53 -14.56,4.53zm203.77 30.54c21,0 37.78,4.21 50.34,12.65 12.57,8.43 21.63,19.88 27.2,34.36 5.57,14.47 8.35,30.46 8.35,47.96l0 140.3c0,3.81 -1.43,7.16 -4.3,10.02 -2.87,2.86 -6.2,4.3 -10.02,4.3 -4.45,0 -7.95,-1.43 -10.5,-4.3 -2.55,-2.86 -3.82,-6.2 -3.82,-10.02l0 -138.87c0,-12.72 -2.07,-24.34 -6.2,-34.83 -4.13,-10.5 -10.89,-18.93 -20.28,-25.29 -9.39,-6.37 -21.71,-9.55 -36.98,-9.55 -13.68,0 -26.64,3.18 -38.89,9.55 -12.25,6.36 -22.19,14.79 -29.83,25.29 -7.63,10.5 -11.45,22.11 -11.45,34.83l0 138.87c0,3.81 -1.43,7.16 -4.3,10.02 -2.86,2.86 -6.2,4.3 -10.02,4.3 -4.46,0 -7.95,-1.43 -10.5,-4.3 -2.54,-2.86 -3.81,-6.2 -3.81,-10.02l0 -213.79c0,-3.82 1.35,-7.16 4.06,-10.02 2.7,-2.87 6.12,-4.3 10.26,-4.3 4.13,0 7.56,1.43 10.26,4.3 2.7,2.86 4.06,6.2 4.06,10.02l0 40.09 -10.98 17.18c0.64,-10.18 3.9,-19.96 9.78,-29.35 5.89,-9.39 13.44,-17.81 22.67,-25.29 9.23,-7.48 19.49,-13.36 30.78,-17.66 11.3,-4.3 22.67,-6.44 34.12,-6.44zm360.76 5.72c4.14,0 7.56,1.43 10.26,4.3 2.7,2.86 4.06,6.36 4.06,10.5l0 214.74c0,3.81 -1.43,7.16 -4.3,10.02 -2.86,2.86 -6.2,4.3 -10.02,4.3 -4.13,0 -7.56,-1.43 -10.26,-4.3 -2.7,-2.86 -4.06,-6.2 -4.06,-10.02l0 -56.79 8.11 -3.82c0,8.91 -2.46,17.98 -7.39,27.2 -4.93,9.22 -11.69,17.81 -20.28,25.77 -8.59,7.96 -18.69,14.4 -30.3,19.33 -11.61,4.93 -24.1,7.4 -37.46,7.4 -21.63,0 -40.96,-5.57 -57.98,-16.7 -17.02,-11.13 -30.38,-26.41 -40.09,-45.81 -9.7,-19.41 -14.56,-41.2 -14.56,-65.38 0,-24.81 4.93,-46.69 14.8,-65.61 9.86,-18.93 23.22,-33.8 40.08,-44.62 16.86,-10.82 35.94,-16.22 57.26,-16.22 13.68,0 26.48,2.39 38.42,7.16 11.93,4.77 22.35,11.29 31.26,19.56 8.91,8.27 15.83,17.74 20.76,28.39 4.93,10.66 7.4,21.71 7.4,33.17l-10.02 -7.16 0 -60.6c0,-4.14 1.35,-7.64 4.06,-10.5 2.7,-2.86 6.13,-4.3 10.26,-4.3zm-99.26 221.9c16.86,0 31.81,-4.37 44.85,-13.12 13.04,-8.75 23.3,-20.84 30.78,-36.27 7.48,-15.43 11.22,-32.69 11.22,-51.78 0,-18.77 -3.74,-35.63 -11.22,-50.58 -7.48,-14.95 -17.74,-26.88 -30.78,-35.79 -13.04,-8.91 -28,-13.36 -44.85,-13.36 -16.54,0 -31.41,4.3 -44.61,12.89 -13.2,8.59 -23.54,20.36 -31.02,35.31 -7.48,14.95 -11.21,32.13 -11.21,51.54 0,19.09 3.74,36.35 11.21,51.78 7.48,15.43 17.74,27.52 30.78,36.27 13.04,8.75 27.99,13.12 44.85,13.12zm172.75 -220.94l111.19 0c3.82,0 7,1.35 9.54,4.06 2.55,2.7 3.82,5.96 3.82,9.78 0,3.5 -1.27,6.52 -3.82,9.07 -2.54,2.54 -5.72,3.81 -9.54,3.81l-111.19 0c-3.82,0 -7.08,-1.35 -9.78,-4.06 -2.7,-2.7 -4.06,-5.81 -4.06,-9.31 0,-3.81 1.35,-7 4.06,-9.54 2.7,-2.54 5.96,-3.81 9.78,-3.81zm49.15 -67.29c4.14,0 7.56,1.43 10.26,4.3 2.7,2.86 4.06,6.2 4.06,10.02l0 239.56c0,8.91 1.19,15.59 3.58,20.04 2.39,4.45 5.49,7.4 9.31,8.83 3.82,1.43 7.63,2.15 11.45,2.15 2.55,0 4.85,-0.4 6.92,-1.19 2.07,-0.8 4.37,-1.19 6.92,-1.19 2.86,0 5.33,1.11 7.4,3.34 2.07,2.23 3.1,5.09 3.1,8.59 0,4.45 -2.55,8.19 -7.64,11.22 -5.09,3.02 -11.13,4.53 -18.13,4.53 -2.86,0 -7.16,-0.24 -12.88,-0.72 -5.73,-0.48 -11.61,-2.22 -17.66,-5.25 -6.04,-3.02 -11.06,-8.35 -15.03,-15.99 -3.98,-7.63 -5.96,-18.61 -5.96,-32.93l0 -240.99c0,-3.81 1.35,-7.16 4.06,-10.02 2.7,-2.86 6.13,-4.3 10.26,-4.3zm236.21 314.95c-24.49,0 -46.13,-5.25 -64.9,-15.75 -18.77,-10.5 -33.4,-25.13 -43.9,-43.9 -10.5,-18.77 -15.75,-40.72 -15.75,-65.85 0,-27.04 5.33,-50.11 15.99,-69.19 10.66,-19.09 24.5,-33.8 41.52,-44.14 17.02,-10.34 35.07,-15.51 54.16,-15.51 14,0 27.59,2.46 40.8,7.39 13.2,4.93 24.97,12.25 35.31,21.95 10.34,9.7 18.61,21.56 24.81,35.55 6.2,14 9.62,30.22 10.26,48.67 -0.32,3.82 -1.91,7.08 -4.77,9.78 -2.86,2.7 -6.2,4.06 -10.02,4.06l-191.35 0 -5.73 -25.77 188.01 0 -6.2 5.73 0 -9.54c-1.28,-14.95 -6.05,-27.68 -14.32,-38.18 -8.27,-10.5 -18.29,-18.45 -30.06,-23.86 -11.77,-5.41 -24.02,-8.11 -36.74,-8.11 -9.54,0 -19.33,1.91 -29.35,5.72 -10.02,3.82 -19.09,9.78 -27.2,17.9 -8.11,8.11 -14.71,18.45 -19.8,31.02 -5.09,12.57 -7.64,27.44 -7.64,44.62 0,18.77 3.82,35.79 11.45,51.06 7.64,15.27 18.69,27.36 33.17,36.27 14.48,8.91 31.74,13.36 51.78,13.36 11.13,0 21.15,-1.59 30.06,-4.77 8.91,-3.18 16.7,-7.39 23.38,-12.65 6.68,-5.25 12.25,-10.74 16.7,-16.46 3.5,-2.87 7,-4.3 10.5,-4.3 3.18,0 5.96,1.27 8.35,3.81 2.39,2.55 3.58,5.41 3.58,8.59 0,3.82 -1.59,7.16 -4.77,10.02 -9.54,11.46 -21.95,21.4 -37.22,29.83 -15.27,8.43 -31.97,12.65 -50.11,12.65zm399.89 0c-24.5,0 -46.13,-5.25 -64.9,-15.75 -18.77,-10.5 -33.4,-25.13 -43.9,-43.9 -10.5,-18.77 -15.75,-40.72 -15.75,-65.85 0,-27.04 5.33,-50.11 15.99,-69.19 10.66,-19.09 24.5,-33.8 41.52,-44.14 17.02,-10.34 35.07,-15.51 54.16,-15.51 14,0 27.6,2.46 40.8,7.39 13.2,4.93 24.97,12.25 35.31,21.95 10.33,9.7 18.61,21.56 24.81,35.55 6.2,14 9.62,30.22 10.26,48.67 -0.32,3.82 -1.91,7.08 -4.77,9.78 -2.86,2.7 -6.2,4.06 -10.02,4.06l-191.35 0 -5.73 -25.77 188.01 0 -6.2 5.73 0 -9.54c-1.28,-14.95 -6.05,-27.68 -14.32,-38.18 -8.27,-10.5 -18.29,-18.45 -30.06,-23.86 -11.77,-5.41 -24.02,-8.11 -36.74,-8.11 -9.54,0 -19.33,1.91 -29.35,5.72 -10.02,3.82 -19.09,9.78 -27.2,17.9 -8.11,8.11 -14.71,18.45 -19.8,31.02 -5.09,12.57 -7.64,27.44 -7.64,44.62 0,18.77 3.82,35.79 11.45,51.06 7.64,15.27 18.69,27.36 33.17,36.27 14.48,8.91 31.74,13.36 51.78,13.36 11.13,0 21.15,-1.59 30.06,-4.77 8.91,-3.18 16.7,-7.39 23.38,-12.65 6.68,-5.25 12.25,-10.74 16.7,-16.46 3.5,-2.87 7,-4.3 10.5,-4.3 3.18,0 5.96,1.27 8.35,3.81 2.39,2.55 3.58,5.41 3.58,8.59 0,3.82 -1.59,7.16 -4.77,10.02 -9.54,11.46 -21.95,21.4 -37.22,29.83 -15.27,8.43 -31.97,12.65 -50.11,12.65zm151.27 -253.87c2.54,0 5.09,0.8 7.63,2.39 2.55,1.59 4.46,3.98 5.73,7.16l83.51 198.52 -6.2 3.82 85.42 -202.33c2.55,-6.36 7.16,-9.39 13.84,-9.07 3.18,0 6.2,1.04 9.07,3.1 2.86,2.07 4.3,5.01 4.3,8.83 0,1.91 -0.24,3.42 -0.72,4.54 -0.48,1.11 -0.87,2.31 -1.19,3.58l-93.53 219.51c-2.54,5.73 -6.84,8.75 -12.88,9.07 -2.87,0.32 -5.65,-0.4 -8.35,-2.15 -2.7,-1.75 -4.69,-4.06 -5.96,-6.92l-94.01 -219.51c-0.32,-0.64 -0.63,-1.59 -0.95,-2.86 -0.32,-1.28 -0.48,-2.55 -0.48,-3.82 0,-3.5 1.27,-6.68 3.81,-9.54 2.55,-2.86 6.2,-4.3 10.98,-4.3zm366.02 253.87c-24.5,0 -46.13,-5.25 -64.9,-15.75 -18.77,-10.5 -33.4,-25.13 -43.9,-43.9 -10.5,-18.77 -15.75,-40.72 -15.75,-65.85 0,-27.04 5.33,-50.11 15.99,-69.19 10.66,-19.09 24.5,-33.8 41.52,-44.14 17.02,-10.34 35.07,-15.51 54.16,-15.51 14,0 27.6,2.46 40.8,7.39 13.2,4.93 24.97,12.25 35.31,21.95 10.34,9.7 18.61,21.56 24.81,35.55 6.2,14 9.62,30.22 10.26,48.67 -0.32,3.82 -1.91,7.08 -4.77,9.78 -2.86,2.7 -6.2,4.06 -10.02,4.06l-191.35 0 -5.73 -25.77 188.01 0 -6.2 5.73 0 -9.54c-1.28,-14.95 -6.05,-27.68 -14.32,-38.18 -8.27,-10.5 -18.29,-18.45 -30.06,-23.86 -11.77,-5.41 -24.02,-8.11 -36.74,-8.11 -9.54,0 -19.33,1.91 -29.35,5.72 -10.02,3.82 -19.09,9.78 -27.2,17.9 -8.11,8.11 -14.71,18.45 -19.8,31.02 -5.09,12.57 -7.64,27.44 -7.64,44.62 0,18.77 3.82,35.79 11.45,51.06 7.64,15.27 18.69,27.36 33.17,36.27 14.48,8.91 31.74,13.36 51.78,13.36 11.13,0 21.15,-1.59 30.06,-4.77 8.9,-3.18 16.7,-7.39 23.38,-12.65 6.68,-5.25 12.25,-10.74 16.7,-16.46 3.5,-2.87 7,-4.3 10.5,-4.3 3.18,0 5.96,1.27 8.35,3.81 2.39,2.55 3.58,5.41 3.58,8.59 0,3.82 -1.59,7.16 -4.77,10.02 -9.54,11.46 -21.95,21.4 -37.22,29.83 -15.27,8.43 -31.97,12.65 -50.1,12.65zm173.7 -4.77c-4.46,0 -7.95,-1.43 -10.5,-4.3 -2.54,-2.86 -3.81,-6.2 -3.81,-10.02l0 -213.79c0,-3.82 1.35,-7.16 4.06,-10.02 2.7,-2.87 6.12,-4.3 10.26,-4.3 4.13,0 7.56,1.43 10.26,4.3 2.7,2.86 4.06,6.2 4.06,10.02l0 71.58 -7.16 1.43c0.95,-11.13 3.74,-22.19 8.35,-33.17 4.61,-10.98 10.9,-21.07 18.85,-30.3 7.95,-9.22 17.42,-16.7 28.39,-22.43 10.98,-5.72 23.3,-8.59 36.98,-8.59 5.73,0 11.3,1.19 16.7,3.58 5.41,2.39 8.11,6.28 8.11,11.69 0,4.77 -1.27,8.43 -3.81,10.98 -2.55,2.55 -5.57,3.82 -9.07,3.82 -2.87,0 -5.96,-0.8 -9.31,-2.39 -3.34,-1.59 -7.71,-2.39 -13.12,-2.39 -8.91,0 -17.81,2.62 -26.72,7.87 -8.91,5.25 -17.02,12.33 -24.33,21.24 -7.32,8.91 -13.13,18.85 -17.42,29.82 -4.3,10.98 -6.44,22.03 -6.44,33.17l0 117.87c0,3.81 -1.43,7.16 -4.3,10.02 -2.86,2.86 -6.2,4.3 -10.02,4.3zm351.21 -248.15c4.14,0 7.56,1.43 10.26,4.3 2.7,2.86 4.06,6.2 4.06,10.02l0 210.44c0,25.77 -5.09,47.48 -15.27,65.14 -10.18,17.66 -23.86,31.02 -41.04,40.08 -17.18,9.07 -36.74,13.6 -58.7,13.6 -13.68,0 -26.33,-1.51 -37.94,-4.54 -11.61,-3.02 -21.07,-6.92 -28.39,-11.69 -3.82,-2.23 -6.68,-4.93 -8.59,-8.11 -1.91,-3.18 -2.07,-6.52 -0.48,-10.02 1.59,-4.46 4.06,-7.4 7.4,-8.83 3.34,-1.43 6.76,-1.35 10.26,0.24 5.41,2.86 13.2,6.36 23.38,10.5 10.18,4.13 21.79,6.2 34.83,6.2 17.5,0 32.69,-3.66 45.57,-10.98 12.88,-7.31 22.83,-17.89 29.82,-31.73 7,-13.84 10.5,-30.3 10.5,-49.39l0 -34.36 3.33 11.45c-4.77,9.86 -11.53,18.61 -20.28,26.24 -8.75,7.64 -18.77,13.6 -30.06,17.9 -11.3,4.3 -23.3,6.44 -36.03,6.44 -19.09,0 -34.92,-3.9 -47.48,-11.69 -12.57,-7.79 -21.87,-18.53 -27.92,-32.21 -6.04,-13.68 -9.06,-29.74 -9.06,-48.2l0 -146.5c0,-3.82 1.27,-7.16 3.81,-10.02 2.55,-2.86 6.04,-4.3 10.5,-4.3 4.13,0 7.56,1.43 10.26,4.3 2.7,2.86 4.06,6.2 4.06,10.02l0 142.2c0,22.27 4.85,39.45 14.56,51.54 9.7,12.09 25.53,18.13 47.48,18.13 13.68,0 26.25,-3.26 37.7,-9.78 11.45,-6.52 20.84,-15.11 28.15,-25.77 7.32,-10.66 10.98,-22.03 10.98,-34.12l0 -142.2c0,-3.82 1.35,-7.16 4.05,-10.02 2.7,-2.86 6.13,-4.3 10.26,-4.3zm335.47 2.39c21.63,0 40.8,5.33 57.5,15.99 16.7,10.66 29.98,25.29 39.85,43.9 9.86,18.61 14.79,40 14.79,64.19 0,24.18 -4.93,45.65 -14.79,64.42 -9.86,18.77 -23.22,33.56 -40.09,44.38 -16.86,10.82 -35.79,16.22 -56.78,16.22 -11.14,0 -21.72,-1.67 -31.74,-5.01 -10.02,-3.34 -19.17,-7.87 -27.44,-13.6 -8.27,-5.72 -15.59,-12.48 -21.95,-20.28 -6.36,-7.8 -11.45,-16.3 -15.27,-25.53l8.59 -6.2 0 148.41c0,3.81 -1.35,7.16 -4.06,10.02 -2.7,2.86 -6.13,4.3 -10.26,4.3 -4.14,0 -7.56,-1.43 -10.26,-4.3 -2.7,-2.86 -4.06,-6.2 -4.06,-10.02l0 -311.14c0,-4.13 1.27,-7.63 3.81,-10.5 2.55,-2.87 6.04,-4.3 10.5,-4.3 4.13,0 7.56,1.43 10.26,4.3 2.7,2.86 4.06,6.36 4.06,10.5l0 51.54 -6.68 -3.82c3.18,-9.86 7.87,-18.69 14.08,-26.48 6.2,-7.8 13.44,-14.48 21.71,-20.04 8.27,-5.57 17.34,-9.78 27.2,-12.65 9.86,-2.86 20.2,-4.3 31.02,-4.3zm-2.39 26.72c-17.18,0 -32.29,4.22 -45.33,12.65 -13.04,8.43 -23.3,19.88 -30.78,34.36 -7.48,14.48 -11.21,31.26 -11.21,50.35 0,18.77 3.74,35.63 11.21,50.58 7.48,14.95 17.74,26.64 30.78,35.07 13.04,8.43 28.16,12.65 45.33,12.65 16.86,0 31.74,-4.22 44.62,-12.65 12.89,-8.43 23.15,-20.12 30.78,-35.07 7.64,-14.95 11.45,-31.81 11.45,-50.58 0,-18.77 -3.81,-35.47 -11.45,-50.11 -7.63,-14.63 -17.89,-26.17 -30.78,-34.6 -12.88,-8.43 -27.76,-12.65 -44.62,-12.65zm189.93 219.04c-4.46,0 -7.95,-1.43 -10.5,-4.3 -2.54,-2.86 -3.81,-6.2 -3.81,-10.02l0 -213.79c0,-3.82 1.35,-7.16 4.06,-10.02 2.7,-2.87 6.12,-4.3 10.26,-4.3 4.13,0 7.56,1.43 10.26,4.3 2.7,2.86 4.06,6.2 4.06,10.02l0 71.58 -7.16 1.43c0.95,-11.13 3.74,-22.19 8.35,-33.17 4.61,-10.98 10.9,-21.07 18.85,-30.3 7.95,-9.22 17.42,-16.7 28.39,-22.43 10.98,-5.72 23.3,-8.59 36.98,-8.59 5.73,0 11.3,1.19 16.7,3.58 5.41,2.39 8.11,6.28 8.11,11.69 0,4.77 -1.27,8.43 -3.81,10.98 -2.55,2.55 -5.57,3.82 -9.07,3.82 -2.87,0 -5.96,-0.8 -9.31,-2.39 -3.34,-1.59 -7.71,-2.39 -13.12,-2.39 -8.91,0 -17.81,2.62 -26.72,7.87 -8.91,5.25 -17.02,12.33 -24.33,21.24 -7.32,8.91 -13.13,18.85 -17.42,29.82 -4.3,10.98 -6.44,22.03 -6.44,33.17l0 117.87c0,3.81 -1.43,7.16 -4.3,10.02 -2.86,2.86 -6.2,4.3 -10.02,4.3zm269.14 4.77c-24.5,0 -46.13,-5.25 -64.9,-15.75 -18.77,-10.5 -33.4,-25.13 -43.9,-43.9 -10.5,-18.77 -15.75,-40.72 -15.75,-65.85 0,-27.04 5.33,-50.11 15.99,-69.19 10.66,-19.09 24.5,-33.8 41.52,-44.14 17.02,-10.34 35.07,-15.51 54.16,-15.51 14,0 27.6,2.46 40.8,7.39 13.2,4.93 24.97,12.25 35.31,21.95 10.34,9.7 18.61,21.56 24.81,35.55 6.2,14 9.62,30.22 10.26,48.67 -0.32,3.82 -1.91,7.08 -4.77,9.78 -2.86,2.7 -6.2,4.06 -10.02,4.06l-191.35 0 -5.73 -25.77 188.02 0 -6.2 5.73 0 -9.54c-1.28,-14.95 -6.05,-27.68 -14.32,-38.18 -8.27,-10.5 -18.29,-18.45 -30.06,-23.86 -11.77,-5.41 -24.02,-8.11 -36.74,-8.11 -9.54,0 -19.33,1.91 -29.35,5.72 -10.02,3.82 -19.09,9.78 -27.2,17.9 -8.11,8.11 -14.71,18.45 -19.8,31.02 -5.09,12.57 -7.64,27.44 -7.64,44.62 0,18.77 3.82,35.79 11.45,51.06 7.64,15.27 18.69,27.36 33.17,36.27 14.48,8.91 31.74,13.36 51.78,13.36 11.13,0 21.15,-1.59 30.06,-4.77 8.91,-3.18 16.7,-7.39 23.38,-12.65 6.68,-5.25 12.25,-10.74 16.7,-16.46 3.5,-2.87 7,-4.3 10.5,-4.3 3.18,0 5.96,1.27 8.35,3.81 2.39,2.55 3.58,5.41 3.58,8.59 0,3.82 -1.59,7.16 -4.77,10.02 -9.54,11.46 -21.95,21.4 -37.22,29.83 -15.27,8.43 -31.97,12.65 -50.11,12.65zm145.54 -43.43c-2.54,-3.82 -3.74,-7.56 -3.58,-11.21 0.16,-3.66 2.15,-6.6 5.96,-8.83 2.55,-2.22 5.48,-3.18 8.83,-2.86 3.34,0.32 6.44,1.91 9.3,4.77 8.59,11.13 19.01,20.12 31.26,26.96 12.25,6.84 26.8,10.26 43.66,10.26 8.91,0 17.74,-1.51 26.48,-4.53 8.75,-3.02 15.99,-7.63 21.71,-13.84 5.73,-6.2 8.59,-14.08 8.59,-23.62 0,-9.86 -2.86,-17.81 -8.59,-23.86 -5.72,-6.05 -13.12,-10.82 -22.19,-14.32 -9.07,-3.5 -18.69,-6.52 -28.87,-9.07 -10.81,-2.86 -21.31,-6.12 -31.5,-9.78 -10.18,-3.66 -19.17,-8.27 -26.96,-13.84 -7.8,-5.57 -14.08,-12.33 -18.85,-20.28 -4.77,-7.95 -7.16,-17.66 -7.16,-29.11 0,-13.36 3.66,-25.13 10.98,-35.31 7.31,-10.18 17.26,-18.13 29.82,-23.86 12.57,-5.72 26.8,-8.59 42.71,-8.59 7.95,0 16.54,1.03 25.77,3.1 9.22,2.07 18.29,5.48 27.2,10.26 8.91,4.77 16.86,11.29 23.86,19.56 2.86,2.86 4.3,6.13 4.3,9.78 0,3.66 -1.59,6.92 -4.77,9.78 -2.54,1.91 -5.49,2.86 -8.83,2.86 -3.34,0 -6.13,-1.27 -8.35,-3.82 -7.63,-8.59 -16.7,-15.11 -27.2,-19.56 -10.5,-4.46 -21.8,-6.68 -33.88,-6.68 -9.23,0 -17.9,1.51 -26.01,4.53 -8.11,3.02 -14.87,7.56 -20.28,13.6 -5.41,6.04 -8.11,14 -8.11,23.86 0.64,9.23 3.9,16.7 9.78,22.43 5.89,5.72 13.68,10.5 23.38,14.31 9.7,3.82 20.6,7.32 32.69,10.5 10.18,2.54 19.96,5.57 29.35,9.07 9.39,3.5 17.66,7.87 24.81,13.12 7.16,5.25 12.89,11.85 17.18,19.8 4.29,7.95 6.44,17.98 6.44,30.06 0,14 -3.9,26.09 -11.69,36.27 -7.8,10.18 -18.21,17.98 -31.26,23.39 -13.04,5.41 -27.52,8.11 -43.43,8.11 -17.18,0 -33.8,-3.34 -49.87,-10.02 -16.07,-6.68 -30.3,-17.81 -42.71,-33.41z"/>
    <path class="fil12" d="M7236.39 7921.96c-24.5,0 -46.13,-5.25 -64.9,-15.75 -18.77,-10.5 -33.4,-25.13 -43.9,-43.9 -10.5,-18.77 -15.75,-40.72 -15.75,-65.85 0,-27.04 5.33,-50.11 15.99,-69.19 10.66,-19.09 24.5,-33.8 41.52,-44.14 17.02,-10.34 35.07,-15.51 54.16,-15.51 14,0 27.6,2.46 40.8,7.39 13.2,4.93 24.97,12.25 35.31,21.95 10.34,9.7 18.61,21.56 24.81,35.55 6.2,14 9.62,30.22 10.26,48.67 -0.32,3.82 -1.91,7.08 -4.77,9.78 -2.86,2.7 -6.2,4.06 -10.02,4.06l-191.35 0 -5.73 -25.77 188.02 0 -6.2 5.73 0 -9.54c-1.28,-14.95 -6.05,-27.68 -14.32,-38.18 -8.27,-10.5 -18.29,-18.45 -30.06,-23.86 -11.77,-5.41 -24.02,-8.11 -36.74,-8.11 -9.54,0 -19.33,1.91 -29.35,5.72 -10.02,3.82 -19.09,9.78 -27.2,17.9 -8.11,8.11 -14.71,18.45 -19.8,31.02 -5.09,12.57 -7.64,27.44 -7.64,44.62 0,18.77 3.82,35.79 11.45,51.06 7.64,15.27 18.69,27.36 33.17,36.27 14.48,8.91 31.74,13.36 51.78,13.36 11.13,0 21.15,-1.59 30.06,-4.77 8.91,-3.18 16.7,-7.39 23.38,-12.65 6.68,-5.25 12.25,-10.74 16.7,-16.46 3.5,-2.87 7,-4.3 10.5,-4.3 3.18,0 5.96,1.27 8.35,3.81 2.39,2.55 3.58,5.41 3.58,8.59 0,3.82 -1.59,7.16 -4.77,10.02 -9.54,11.46 -21.95,21.4 -37.22,29.83 -15.27,8.43 -31.97,12.65 -50.11,12.65zm274.39 -254.35c21,0 37.78,4.21 50.34,12.65 12.57,8.43 21.63,19.88 27.2,34.36 5.57,14.47 8.35,30.46 8.35,47.96l0 140.3c0,3.81 -1.43,7.16 -4.3,10.02 -2.87,2.86 -6.2,4.3 -10.02,4.3 -4.45,0 -7.95,-1.43 -10.5,-4.3 -2.55,-2.86 -3.82,-6.2 -3.82,-10.02l0 -138.87c0,-12.72 -2.07,-24.34 -6.2,-34.83 -4.13,-10.5 -10.89,-18.93 -20.28,-25.29 -9.39,-6.37 -21.71,-9.55 -36.98,-9.55 -13.68,0 -26.64,3.18 -38.89,9.55 -12.25,6.36 -22.19,14.79 -29.83,25.29 -7.63,10.5 -11.45,22.11 -11.45,34.83l0 138.87c0,3.81 -1.43,7.16 -4.3,10.02 -2.86,2.86 -6.2,4.3 -10.02,4.3 -4.46,0 -7.95,-1.43 -10.5,-4.3 -2.54,-2.86 -3.81,-6.2 -3.81,-10.02l0 -213.79c0,-3.82 1.35,-7.16 4.06,-10.02 2.7,-2.87 6.12,-4.3 10.26,-4.3 4.13,0 7.56,1.43 10.26,4.3 2.7,2.86 4.06,6.2 4.06,10.02l0 40.09 -10.98 17.18c0.64,-10.18 3.9,-19.96 9.78,-29.35 5.89,-9.39 13.44,-17.81 22.67,-25.29 9.23,-7.48 19.49,-13.36 30.78,-17.66 11.3,-4.3 22.67,-6.44 34.12,-6.44zm268.19 0c15.27,0 29.27,1.67 41.99,5.01 12.72,3.34 22.98,7.87 30.78,13.6 7.79,5.72 11.69,11.93 11.69,18.61 0,3.18 -1.11,6.28 -3.34,9.31 -2.23,3.02 -5.25,4.53 -9.06,4.53 -3.82,0 -6.92,-0.95 -9.3,-2.86 -2.39,-1.91 -4.78,-4.14 -7.16,-6.68 -2.39,-2.55 -5.8,-4.93 -10.26,-7.16 -4.13,-1.91 -10.02,-3.66 -17.65,-5.25 -7.64,-1.59 -16.39,-2.39 -26.25,-2.39 -17.81,0 -33.88,4.46 -48.2,13.36 -14.31,8.91 -25.61,20.92 -33.88,36.03 -8.27,15.11 -12.41,32.05 -12.41,50.82 0,19.09 3.98,36.27 11.93,51.54 7.95,15.27 18.93,27.28 32.93,36.03 14,8.75 30.38,13.12 49.15,13.12 12.72,0 22.59,-1.11 29.59,-3.34 7,-2.23 13.04,-4.77 18.13,-7.63 6.04,-3.5 10.42,-6.92 13.12,-10.26 2.7,-3.34 6.28,-5.01 10.74,-5.01 4.13,0 7.24,1.19 9.3,3.58 2.07,2.39 3.1,5.49 3.1,9.31 0,5.09 -3.74,10.74 -11.21,16.94 -7.48,6.2 -17.74,11.61 -30.78,16.23 -13.04,4.61 -28,6.92 -44.85,6.92 -23.86,0 -44.78,-5.57 -62.75,-16.7 -17.98,-11.13 -31.97,-26.33 -42,-45.57 -10.02,-19.24 -15.03,-40.96 -15.03,-65.14 0,-23.22 5.09,-44.38 15.27,-63.47 10.18,-19.09 24.42,-34.44 42.71,-46.05 18.29,-11.61 39.53,-17.42 63.71,-17.42zm250.05 254.35c-24.5,0 -46.13,-5.25 -64.9,-15.75 -18.77,-10.5 -33.4,-25.13 -43.9,-43.9 -10.5,-18.77 -15.75,-40.72 -15.75,-65.85 0,-27.04 5.33,-50.11 15.99,-69.19 10.66,-19.09 24.5,-33.8 41.52,-44.14 17.02,-10.34 35.07,-15.51 54.16,-15.51 14,0 27.6,2.46 40.8,7.39 13.2,4.93 24.97,12.25 35.31,21.95 10.34,9.7 18.61,21.56 24.81,35.55 6.2,14 9.62,30.22 10.26,48.67 -0.32,3.82 -1.91,7.08 -4.77,9.78 -2.86,2.7 -6.2,4.06 -10.02,4.06l-191.35 0 -5.73 -25.77 188.02 0 -6.2 5.73 0 -9.54c-1.28,-14.95 -6.05,-27.68 -14.32,-38.18 -8.27,-10.5 -18.29,-18.45 -30.06,-23.86 -11.77,-5.41 -24.02,-8.11 -36.74,-8.11 -9.54,0 -19.33,1.91 -29.35,5.72 -10.02,3.82 -19.09,9.78 -27.2,17.9 -8.11,8.11 -14.71,18.45 -19.8,31.02 -5.09,12.57 -7.64,27.44 -7.64,44.62 0,18.77 3.82,35.79 11.45,51.06 7.64,15.27 18.69,27.36 33.17,36.27 14.48,8.91 31.74,13.36 51.78,13.36 11.13,0 21.15,-1.59 30.06,-4.77 8.91,-3.18 16.7,-7.39 23.38,-12.65 6.68,-5.25 12.25,-10.74 16.7,-16.46 3.5,-2.87 7,-4.3 10.5,-4.3 3.18,0 5.96,1.27 8.35,3.81 2.39,2.55 3.58,5.41 3.58,8.59 0,3.82 -1.59,7.16 -4.77,10.02 -9.54,11.46 -21.95,21.4 -37.22,29.83 -15.27,8.43 -31.97,12.65 -50.11,12.65z"/>
   </g>
  </g>
 </g>
</svg>
